<mxfile host="app.diagrams.net" modified="2024-02-20T17:27:05.952Z" agent="Mozilla/5.0 (Windows NT 10.0; Win64; x64) AppleWebKit/537.36 (KHTML, like Gecko) Chrome/121.0.0.0 Safari/537.36 Edg/121.0.0.0" etag="YvYAhwFCRpn8rb1bp6zI" version="23.1.5" type="device">
  <diagram name="Page-1" id="13uWoN2QJqgmeb3lzITw">
    <mxGraphModel dx="2319" dy="850" grid="1" gridSize="10" guides="1" tooltips="1" connect="1" arrows="1" fold="1" page="1" pageScale="1" pageWidth="827" pageHeight="1169" math="0" shadow="0">
      <root>
        <mxCell id="0" />
        <mxCell id="1" parent="0" />
        <mxCell id="LjljhjCefLYw6fvzPOS--1" value="Main Page" style="rounded=0;whiteSpace=wrap;html=1;fontSize=22;" vertex="1" parent="1">
          <mxGeometry x="850" y="240" width="200" height="70" as="geometry" />
        </mxCell>
        <mxCell id="LjljhjCefLYw6fvzPOS--2" value="" style="shape=image;verticalLabelPosition=bottom;labelBackgroundColor=default;verticalAlign=top;aspect=fixed;imageAspect=0;image=data:image/png,iVBORw0KGgoAAAANSUhEUgAAAjoAAAFQCAYAAAC2z9RhAAAAAXNSR0IArs4c6QAAAARnQU1BAACxjwv8YQUAAAAJcEhZcwAAHYcAAB2HAY/l8WUAAGksSURBVHhe7Z0H2BRFtoYLQUTFNQcEI5gx55zFtObsNayuit41reuu4lXZq2K+6prWgJhwzTnniBFzXLOCmCNmxMtbzvm3aLpnuif9PT3f+zwNM/P39FTXOVX11anQXQYMGPCrawDzzDOPe/vtt0vvRJ7o06ePGzVqVOmdyBOyTT7BLiDb5A+VmfySF9tMVvpfCCGEEKJwSOgIIYQQorBI6AghhBCisEjoCCGEEKKwSOgIIYQQorBI6AghhBCisEjoCCGEEKKwSOgIIYQQorBI6AghhBCisHTZfffdG7Iz8rTTTuu++uqr0juRJ3r27OnGjh1beifyhGyTT7ALyDb5Q2Umv+TFNoroCCGEEKKw6FlXbYieDZNfZJt8omdd5ReVmfyiZ10JIYQQQjSYhkZ0tt9++9I7kScmn3xy9/PPP5feiTwh2+QT7AKyTf5QmckvzbTNkCFDSq8mpWERnV122aX0SgghhBCicQwaNKj0alIaFtEZPHiwP0T+0Jh2fpFt8onm6OQXlZn80kzbIHSSojqaoyOEEEKIwiKhI4QQQojCIqEjhBBCiMIioSOEEEKIwtLpk5G7dOlSevWf13GfifrRq1cvN2bMmNI7kSdkm3yCXUC2yR8qM/klrW1+/fU/MsRex31WjnKTkTtN6JiAmWyyyfxrjq5du/r/w8/stagfM844o/vss89K70SekG3yCXYB2SZ/qMzklzS2QcSMHz/e/x++/uWXXyb6zM5NIndCx8QL/88111xus802c7POOqvfXIjPETy/+93v3BRTTCGh0wBef/11N99885XeiTwh2+QT7AKyTf5QmckvaWxjQuaHH35w33zzTYfA+emnn9yHH37obrjhBvfee+/5c0wExZEroYNw4UDUzDvvvG7gwIGud+/erkePHv5z0Xhee+01t8ACC5TeiTwh2+QT7AKyTf5QmckvtdjGxA8i5+yzz3bvvPOOF0EmeKLkRuiYyOnevbtbeOGF3V577eVmn3129/HHH7v77rvPK7XVV1/dR3d4tPsLL7zgvv7669ibEtXzxRdfuOmnn770TuQJ2SafYBeQbfKHykx+SWMbNMF0003n+vfv76aeemr3wQcfuIcfftiP7Kyxxhpu5plndu+//74788wz3RtvvOEfKREndnIhdEzkTDnllG6llVZy2223nRc03BShqW7durmNNtrIf0bmPPDAA35HRT3DpP6MGzfO57fIH7JNPsEuINvkD5WZ/JLWNozwMI1l1VVX9aIHXXD77bf74Mfvf/97P6n5o48+cpdccol7/PHH3Y8//jiJ2CkndJo2VsQ8m759+7oTTjjBD1chaFBpV1xxhdtggw3cTjvt5KM7n3/+ubvrrrt8uAqRw/c0R0cIIYQoFta+09YzNHXPPff4QMccc8zhNcE666zjrrrqKjd69Gg322yzuX333dedeOKJfrpLFl3QFKFDgqaZZhq32GKLuTnnnNN9//33PuGXXXaZn3TMTXGjzM5GxbEcjbE4y4SkyUdCCCGEaE1o262dJ/rDKM4dd9zhtQDv0QtTTTWVGz58uNcFaIe5557bLbnkkn6Yi++loWkRHcJXJJiEMf/m9NNP98qNoSzG4hA2l19+uQ9PEY6ym4+OwwkhhBCiGETbewTN1Vdf7YUOn6ERED6nnnqqn5zMZ2gJdENamiJ0mJuD0GFlFQqOZWMWseEz4LOoqJHIEUIIIYpNtK1HH3AAi5eA94z8oCHYegahg7ZIQ9MiOiSICUcQTjC2m0C9hUNUGq4SQggh2oNo+0/wAxA1RvhZWpEDTRM6RG8s1BSqt7jPhBBCCNG+mCYIV21ZlIfP0BRpaarQMQUWKre4z4QQQgjRvpgmCCM34We5FDoQl7AsiRVCCCGEyEJThY4QQgghRDNpys7IzMNhZ8Ott97abwD0yiuvuGHDhvlxNrZ4npAGv3ngdddd1zHZSJSHDRctpPfdd9/5Jfs2flmJuN0qWa437bTT+tdch+txXSaQzzTTTP5zwoZ8zmGQhvABrPWA3/n222/9A96A5YXslglh2mqBe7LJ8fYwOfIFiDLym+RJ1rHgSth9hSHYnj17+tWHlBPujfe1wLW5py+//NK/r2TDasAe5BFQZrkeu5WmgQUI9jTwWtJDnrE/V9SX2WuD62FP/m75ySIIPidvsmK+wW+xcZn5BH6IPZlPUM6nqiEpn/AZyn89If2kGf/MmmYrL+xrQv5wLXyB+09bJxnkH9exCahp0sTfoj4QJfQD4LFDWdIWpov75TexPb5mZVlMShrbxIE/bbrppl43sIEwj4jCr/bYYw83//zz+/32rrzySvfJJ5902LHTHwFBBU7lgNBZd9113auvvuouuOACnwE822r99df3GwVde+21Ejop2W+//TqW5vPgtAcffNDvS5SGOOdbfvnlvS2ACurpp5/2W23z4NWtttrKf05D8cwzz7j777/fv6fC7dOnj1thhRW8fa0SqBV84OWXX3Z33nmnf8/mUPgNUOmRhhEjRvj31fKHP/zBP0MF3n33XffII494HyT9M8wwg1t00UVdv379vPizCfP14Pnnn3f33nuvv0d+i93Al1lmGZ+PCKt///vfNT+gEDuxs/g111zj37PpFo9cAf723HPP+TTUwpZbbul3OgeeMPzYY4/5tKeB7/F9IB+effbZDp9KA/lGo8OzcRZffHEvtPmMBof744nJTz75pG/M1ltvPbfEEkv477HrOp9z/1mxhpZyc8ABB3SsFqUu43E1X331ldttt906BCW7vOJTbIxaLVTom222mX+NcCCf+C0a7b333tt/Xg/INwQF2+6/+OKL7u23305dD1MH8Cwj8pinVCMmsAE+QV7TgeV9Gshb7pmNZRFyNGzk30svvVQ2TZUaU8ovHWyua/XTueee29ERqAT1Gve2yCKL+HRxPepInrtEfuFXpFVMSi1CB9+nXWEDQfw+FDq33nqr3zH5008/TSV0mjp0Fad87TNzQNEaYC8KPc8hYadKRFcRbEgjwrPYEFcInnqKnCj01mmIqUSz7PLZzmAP8m2ttdby4hwhSr5RCdLDRsQgMBA5Ih3kHw0LAnTllVf2DUkaX+QchN2aa67pll56aS84ET4IA55btPHGG3vfNlFYiXnmmcctu+yyXphzDdJEZ2OVVVbxotaiZc2EtFMXkC/cE/Uc6aBu4PPVVlvNd5hUduuP5WmoG+I+S0PThA4JixM1UsKtCSqdwk8DDdgWZV2vo7P8gqfq8xwVq1RJR1z6qj3C+yISxhAQjUM984/fKGK5wiY0hjSgNMY0hsC9snMqUU2eepy2p14U6uE7VjcjIslbREs5qMNp4Gnoifoa2MKuhSggkoJYSSN2OA8BAXYNIE1LLbWUFzvVRAeqBX/jd4lW2bA+6bK08XfED0IMwSex0xhCX2gJoUOBAuslRz+To7QONM4IAoOxaoab6FHXerzwwgt+6KUzoMIy8UbIndB5XBqrPRgmM59n/NkqboYOGHJ56623Yr+X5WB47M033/TXLQo0KkRwGOaeZZZZvP8BNmIIgTF7/CbtMEmRIHqFzeN8Ic3BkOPXX3/tr0UdTFSTIYMkkkQOec+QHcPL1hCZ2CFaVEnsMHRrHQyG6igTdh0EEFEjhpTN9o2E9ojfQ+SY6CMtDFOR3zYfjfQS0WbY3+ZTifpgdg47beFnWTpzXSeo6N8m0tQZJhmH4+44MXMPOJhQh/NQKGgsF1xwQV84CFUytpvlBtoVKn1rJOnN0oBSMaSB/I1WFswRocACY+E8b4RGnvF3ohzA97APdqOAE9ExqCyZ98H/NNa1HFyfezIQBDYfhMqUNDD2Xwv2UDhgfgXXo7JnHN7mWTD+O3LkSPfEE0/EprOag/uyynvFFVfsqPyxH9EIBAr3H/fdtAff55lxBr1ResOADfkbcx5qAZ+w3jflmflNoc3KwffMpxB95lNx0KiS/o022sgttNBCHfPSgKGqp556ys/XogGKA7+xRhsxzjyUMG/SYnUS5YZInHXW8BFsR8OHT1HPAVElfIq5HNVCw0ndCJZP/BaRLIZ4DGzOZE0EX9QX0hwIbISLTXDmXvitpOE/EzlWJoFyyZwcBCe2NGGD/ainiHwwh5CyllS/U/aob4BJpqSN7zPvh/9pH/Ad82GD9+XED39DkHF/XAco10n1JeeQv9gzFDn4+EMPPeTrA2yAfbg3rs95pI16M2093A5Usk0c5C3zFslPyhOLlyi3zNPEhtQHzNtifly4KGXVVVf19okjWwqqBCehwOO4FCIqHhwfpU+FS2JxGho0GnALSYvWAYe2BrxINOue+J0i5l+tMJzBRGpEuPX2gUaYRpUJ83SSRPXE+Z4JgihJIofGH6EOiBQeykjHwa5rkR3m7IR2LAdCkUnuiAcDIUQjaBPMG8Fyyy3nh6zC4TvS8uijj3a0V7wmgmiRHYQvnUXu0VaIiuwgZsl/tABCh84J0X3mMjJ3C6GDkETUh5HDSjRF6AAOQZj05ptv9kofhc3NUCiYQQ1zzDGHvxHrLQkh2hMaWia5EsmhwbGGF0FNb456hOiXDQOKxkPdTK85HK6iXkfk0PCHEOm6/vrrfQTHGiMaMSaRMwcordihQUPM0qM3EBKIHSIu9YaONtcNl6ITRUNw8b+B2CFdtGkmdrgnxA6RB4md6qDtx8/IR8r6bbfd5iPFaAX8jjzGr1jtlnZlIDRN6JBoQpcMbzBpELFDoqmocBZWSkDaAiCEKCb02rfffnvfa7fhD6AHxxANQ+LhEKBoPEThGaqmsTF70LNmuIoGn/o9ClG3G2+80df7odhhWgNTGNLU9XwPQRuKHX6/EWLHRA5zlOweGYZD5BBViPob/sjQKcv+48SOTWAW6SHfyUP8CU3A3DNe8xkjPZT/e+65p+wQaBxNEzo4CaKGUBTDWNwQ6o3PWWvPOD/wmTmZyDdhbxrFTViag+GGrAehcJR8pcoP/6ACibtGliNNJcs5hOrjvl/p4H4IvZaD/LPKk3lBNCI0KHHXq3Twe+zJU2nYl/FyKvK4a2Q5aLDqAWWdiA3XxHdovBiq4l5CGzFfjCgOwwVZQtYhzKdgiDx6L2kO7GK2abf6iftmXhIr3my+BfU4jTxCx/YYioKNmEtDxB5hSsNE3jHvgsgQkR2bZ1gOvse0ByJHti8R1zGxQ7pqxebkhCKHYSoEFsNWSY0q7RZ7jrG3l83NwW8ROwy3hJEhkQ4b0SFv8S38yPyE4VDyGXtkqQOasmEgUEAYp2X8bd999/WvUernnXeeb+DYCAgnw5FvuOGGiSYZiUnZZ599OvZeYeIgmyqlnWQZ3cSJwkhFxrg04ExUKhRgGt+4DQPpae+4445eCACOx99rgWvQ+0PFE5q0yoUKyDYMxLlJf1LFkxYqI6u0CUnbhoGbb765b3CB30CMVPNb5AWNctLkONh22219hUjB5je4LzZ/pAGoBq5B5cDQDo2QpTvcMBBIWzX3FIL/WIWE/1W7YWDUnvgztrHGxiK+9JrxjVBcpyHcMLAW37F7wzZhlCkPGwZSXujlVlv+EJo2pAQMO1H+KYP8jdVH1A1mb+pmJvNSP1gkoxyUMzpC2AKhyXtswbQFeug2JEQ9Y8NizMtBZIQ+hc/xd0SJrfjkOqQF36BuioN0M3cmacNAygdpI5Jof0dYIeKoEyr5HN+hDsXPqKtswjwNMhO9GX5pV6JtTSXwbfZmo6ODfYYOHeoXGuy+++6+3qCTc/LJJ3dE0cKynIsNA3FuCtJee+3lHYFQII5Apbbrrrv6G8S5KUQ4ryhPuBsnYoNCXE2olEqb1Sz0VA3GPpNWXBg4MBWMpQH7Ek2o5SBKQO+x3GRDKhV8Ju77WQ4TOeXgnFp+q1IBpwG3XiC/hS044q6V5iD/aEiobNn0MIl65J81erUStWcoIoDGhoOIQFaRE6UW3wltE6YvD7Ayi44inZ9qjp122mmiqAgNiK0WYyk/E8HN3jQ0lHtERRqRA9QR1O1s5Y+44T15iChEsKSNDlLnmAAJIzuIjFqGsVjtxTXMrllEDtBe0cGg8UX8WZnGV7g/OvIiHeQlGoDOE+3ZLrvs4utR8pTOA75CoITFTGnqcKMpy8txIML4hCvpHeDs9Bouu+wyv+yVKA+KHAXHSgpzFJEMFQ89EZwAg9PAUYkjgCrlHxWNNaxsoU8FYRM+ETkUcAot5yUtL8chsRe9SCosftsqilrgGghh/ue3CJHTG0TNN4pweTmij7yslTCvkuD3yG9C8NaA0qBbVKAauIY1zDQuNExUGLa8vBFQyeMzpD0N1AXmU5Ug7TSo1BfVCB38BvFcK3ZvUdvkYXk5dYEJsWoPEzL4I51QopH8Jg0K82ns79Q3iB/2s0FcpD2o97kO9QzXwk858E86VTRu+IQtL8enEDNRn6JcUW44n84x1+McIgDkF/US+RRCXUckCMHBb0K4vJy5R1zL/kaknPOxZ9y9xB3cH51N0mH1FwfppW2Lpqld4P6zCBLzPxYm4SeUf/KOxwFRFshTyiDljvNCsV1ueXlThq4scYSkCE9SWE8//XRfaHAmQvg00MOHD0/dS2h3KEzR5ZrkHcMWFspNgp4RhRmRQ+SEygJnpGJjwh/hcZv4lzR0ZVgUgaiSFfBq4DoINxsKo/JjJQdDOfiIDV2ZEAtXYVQD907lBklDV1SoNFbl8jIJy0u+Xw7yjMqd+6aRpBNQTQ+Qxo9K1kL6pJ38I2oUDl1Zumy4oFqodKzRpyKqduiK9JDv5BO+g1/SwzafpuFC7DJfgvvBFnyWlnDoikaV3yKPs2LDwtiG/Y+s4S/Cs64MyhbpZsjIlnQjqOi0VluuK0H0hH2Q8MlKQ1ch+AfnIjIQRYgoGlXsQDSGvDKwVbmhqz333LNhq6TwXerjWp/N16pkHboyqAupsxA6PLOPPKSuOPDAA30dd8UVV7ibbrppovqg3NBVUyI6OBqFk14lhRcFTsL5nB4DlSYVM400NyMqgwOhaslXnIG8xKFoNKkEcICkyA7nMuZOY893TeRQudBgUTmb8yRFdAzSge0QqogTGgTOyXrw2wgmeotAxW7XCyM6fE7lSIg47jppDyI31vtOiujwOQ0ZG1bFXaPcQbr5PnlWDvKPipr8s0gnR9w1yx3kH6IJUQOIUq6HLbGxRXSwM/ajMYi7TtqDchv2vquN6JAeRAxzirgu98F1sIEJZ/yZhgghZ4sZKuWrEUZ0EDo0nEQrovdT6cAmNIz8T++dMgS87+yIDmUdoYAPhQd5RQfC0mrgl/gnaec88hs/YWdz8ob3Vv5pVOox2TeJMJ/SRHQM7M93uEfA7/EV8oZ8s7oKKkV0EEv4WiOgfJPXRB/aEeyQJaJjUObxfcoTWwxQvwBlj7qAcsyBDc1XO33DQMDBTNlhfMN6bhTkLD018ds8HXoKOAK9MaDA0ljjEHGrfqgIGHOPihwqSltGmbYRCeH3qXQIKVdzUGnZPRhWKYXgI/hP3DWyHGl8jXMQDHHfr3SQF6GfV4Lf4TvkQdz1Kh00DDS2BnkXl3+AveOukeWoxkfiII/D9NAIIyyZz4Ff8zdgeAXBQgeKoW6LxmWhFntiF7NNGt9pJjSk1ANU8uHBVh5ENhB4YZqpI/iMaJ+dS9mno4n4sTyPYuKZRSS1HKGf1gL2QCTT4FnkjPqMeg0hmDTPrxyUI4RXXLrTHiawRPVYvQBhRMjqVHRDUv0WR1OFjvUswkrS1F69Ks52g4qJSooCZhUIvTjEDlEbi04AIodeJz20qMhhlQUiJ6mSE6JZUJnZcCKRJ2uoqT/ozdGAsZkgEZ5qeotFgwafegAREh5Ex4hcMAREp8jqWESjRdJpMPgukZVKAgShg13YAbmWw6Iw9YB7516JCIZiBz+pRuwQHUMcxqU77cFKK1E75q9hRDL8LLdCxxIW9i6sospbL6mVoKBTmUXFDhUZwgaxYyKHIQzmQZjIoXKgMaECyxKBaARRx5VPVE8R8o6hS4YoiTjwGn/FR/BfxDpih+GORg071EJY31VLPcoDw7EsEyfiQ1lHrFgeMqzHRNxwsnE5aGSIaBFBquWod2eKesuGP+m0AfdoYoe5OWkhfxA7celOexAVEvUjrhzRfmUpX03tDsUlLEtiRTI0BAgWxI6NPTO+SSVGZbb22mv7lRIU/lDkUDkwZyOryMFuDCUwRFaPg+XQ4SRcKtXOEF7ki/UaWHLKsvu49FZ7sJrAxD0TVxlCDP/OXILwfdqDfZDsoaxAo0il3erQaDB3BLFDT9mEPMId/+O+2dG20uaMzQB/NTFCOaOjEWerNAfDc5Rdg+sSvagG6gPyDrET1g8IRPZxIv+IfNA5alVsGIs6ME7s4CvW1hShE9AOmJ1CjVCt7RT3LRD0JqJix3q/rCQKh6sQOYS1qxE5wHWoJOMq6WoOGnxbcQWEt9NObq0nzBGxvKPiJ+9s+Wg9Dq5nvWcmWRNlC/+OncL3aQ8aKltxBVT8iN8igH8yAZ2oJav+bJI3+YjAYZXWKqusMlHedgYMD5m4RCQjVKr1HYadQ+FKma1l7gd5yNA0Q9TMxSHSQ6PB0BXlDj9EXOVBMFYLPm974ETFTnhflG+JnfZCQqdgIHaI0jCR08bC6f1yIE6oiBmTZ0iAHlAtUROEAJVIPQ4ml9rEdCYmMyGwM4QOItGGScgv7hGBGJfmag6ibNZDoUfN0v7w7zSQ4fu0B9fBxoDdyb+iCB0D38ZvbflzKCqIhLHsm2EKxH1nwAo95rqYCCMd1foO9rQhOe4TkcI91wKNO2KJPEQwUg9YWlnthGAkQkbUsVUhrxA71IFhflndAnTuqo2OidakaUKHQmZDAmEoKu4zURvWIBDyRyxQ+Gm4ERA05IggKoNaRE69wT9IJ40zcwpYeWMNWTOhcmQ1CvnDsIn5ZytAfhFVIO+4h3qtbskT2IQl0EzAZzjGVkExwZbJyURDiG4hFpoN89wQECyFRWzWGjWgzCKcEFBEX+tlT+agkIc2gRe/of61oVryj7xsVbgf6jiiV5RjbEE5tu0FsuzqLDoP0wRhHWyfUbaylK+mbBhIj4H5F2wINeH3/CZwPMOCZWOsfd9www19gWNjICnt+kFlz3CGDVlR0GnICevyPg1811YuIIywEz0iHI6eH+H1eohUEzq2JwihdYPxdZuvQAVFQ2L7KlQLQwO2RBkxSCOFEAT8En/lIAJTz+EQ8o/Kl8JLY0L+hb1N7MOQVlbIP+xDvvEb5KPBfXK/QONJ3mHDWmASsA01MpRExAGRlQb8kqFKIM2kh/zPCnsusXqIqFtYARKpID2IIiI9FqHA/4l00RHIinUK8A3mvNmSVyIk5KU1nNiSIV3mXxGRSVvOonAf2Ip7wJ7ck4GoI3plhD6VBe6B/Wfwc65pUA6wB+UCX7RnYHGP5B+/VwsM51nUjfvit7hPIkq24WIWn8I2Zo8Q8p66gzqQaCdDVhbpDBtJhuxsfhILO0gPvlIt+CWrXoH2DP/md9uRJNtUAnuweSu+ybPCmKOHf/MIKcQ4D/hFL+A/lBMot2FgU4XOFlts4TbYYAPfE+NhnmQAk1DZMZkK/qqrrpLQaQLVOp9oPLJNPgmFjsgXKjP5pRahw+7pdKZuueUWv9UEQocdwem83Hjjje7aa6/1YjyN0GnK0BUJJDFWWVgP2XqhwGdhZIDX9YgUCCGEECK/RNt7XptOMI2AXgg/Q1ekjWI2bY4OCbKxYIYDiO4Q2uUz4AbY9ZRxYrDQosSOEEIIUUysjafN5zUT8VdbbbUOUYNGIMKzzTbbdCy4YOQnrciBpggdboBJdUyAY/yXcVPGaddff30/tsx4LMv/GPdnzg43yg1L7AghhBDFJCpymBOKBmC+FisB0QbMmWIeLwsNmAKDhmD3av43jVCJpjzU02DiEDP9WSnBZEQmYzIp7brrrvOT+phwighi8iQTxpj8JrFTf1DC1U6SFI1Ftskn1nuUbfKHykx+KWebaDCDYMfqq6/udQBRnBtuuMFPQmazW0QOc30uv/xyN2zYsI6tUUKhk4uHenLDhJtQZ9dff707//zz/c1xA+uuu65f9sej15kZz42yvTs3bgInrXITQgghRL6xNh0hxEo1giNsmMqKtyuvvNKvZkQbsJklc3zPPvtsL35YwYYQss5HGpqy6iqEm+Jgfg7jcMyiZkkme77ccccdfnnhpptu6qM6LC989NFH/VLZLDclyoOYtM3IRL6QbfIJdgHZJn+ozOSXSrZBC/AsRtuokqEqVlTR5rMVDY9R4RpnnXWWj9aYwInTA52+vDyKiR0EDntSDBw40E8yIjSlIarGwz5Gti+NyBeyTT7BLiDb5A+VmfxSrW2I9jA0xTSXc8891z8VnqhOksiB3AkdMLGDsEHNMTGZOTtsXMVnzLhG/PA/54n6wTChbQIm8oVsk0+wC8g2+UNlJr+ksQ3CBVHD1BbEDCLHNlq8/fbb/Q7XfFZO5EAuhQ6YgDHBYwInFEEc9lrUB+Y+pd3FVjQX2SafYBeQbfKHykx+qWQbhAsixg4TMyZ47O92bjmaInSiQuTII490f//730vvyhN+18RP+JlETn1hZVstT0IWjUO2ySfYBWSb/KEyk1/S2MaEjIkdCEWNfVaJugsdhAcHQ0vMlmbicHR+Dc+1uvrqq0vv6ouNl7cL9R5/JmqGYo6DzxkX5XlTNgGzkpJOwvwE30DZsy8CQ5MmZhtNK/oJ5amWp443a64CPsH2DzwbiOdrWQ8sbaUUYn6CX7BhKHtl2LB1s6jkK9gFivJE+Gb5Cf7AMASTTNlehMmk1foJWN3BBFcaUbYnwVeS6rN6o7YnG+XamhD8gfNYcYUwqqbtCYWO1SnMA2aBUyahY5URiedhb+xUuOiii/qH9IUPJgQqBKsc6g3paCeqrRSSKDdBzCaA8TyySy65xG8HYDPd06bDnAw/QeCst956/plmVExUSs2yXyv6STnbpKHevpIE/kBlxFLPu+66y6+ORPDweZbKifqEg93SWUbKc+940Ck7oVqj1gwq+Yo1cM0SCI2mWX7C7yB0EMRPPvmkfxgjr81PstQp1vbwkM4dd9zRPziTzWXffPPNptmlFeuUWqjVT7LUZ7Q9bAL4yiuvuOHDh/s5OoiftH6C0Dn22GM76hSek7Xxxhu7ZZddNp3QMSfjf5aAsbadjX3onZMoKjmEDQniHBLVyIiOPSm4XUAc1JOoyjab8T8NDqKEnauJxPAwtTvvvNO98cYbvsIq53R8n8OcjOuwNwKTzHHaxx9/3AsoHNrOr7UglaMV/YQyRT5XS719JSS0F+lcbLHF/JOfEbPY9d5773UjR470vXdryJIwPyGCw3XYFIz/qeiYfMjGopYPjfYTqOQr3C/UYps80Ug/CaEO4Qnzyy+/vJtnnnn8fI0HHnjAH/TcrT4pV6dYw8V1WLTCtiR8/txzz3UIbOqUPPhJ0ajVTypFdMxm/E/AhKfyL7HEEv4zlpPz5HI621aflPOTQw891J1wwgm+Q42PoFFYus5+PKmEDoklOnPwwQf7BoxwISp6xIgRPhEYnx8CEsKxww47uMsuu8x/JvJFtDHFdqH9qFQYPsBZ2Iob+9IAscnj888/n1jY+R7DU7vuuquP9OEnVGz05F588UU3duxYf31+y/xETEytQqfRmK+YHbE3m35SORGFwcYPPvig3xSUBijOxnwP31hnnXV8jwuxQ2WIbz322GP+icShn0Bn+0rRhE6jMT8BbIe96dkjeGiIGKKgDWETOOydJIoRSkRwDjnkEB+9oSP26quv+uXGdJ4QONim1iEx0Rgq1WdRPzF7r7LKKj5ix+gCbQ8Chn31rJMchbbnsMMO86/79evn/Q0hTacJf0n1CAiEDkqLSA4/xO6EKPKPPvrIOyg/AqGz0tDxbCuRP+JUtlUQ2JLXNFI4CJEcdqvs06ePtzfO9v333/tzo/BdhJHtak2jdeutt/prII7MT1QhJVOpB5QXrIKiIqLHRESHhohhJxod/MQESxT8AH9iy3YqM7ZzJ/rL82toAPk7186Tn2AXaAXb5AnsiD1p7Gh4GMpgyJPGCIHL0CeCJc7OfJe5OESGaXvwjX/9618+ykwHiu9wbY6kBlB0LmnqM7M9dkRD8FxM2h7qFeoHhA/1SSWhM2DAAF+vIIZ5/BQjEQRi8L2Kg+DmSPagTRuXp7GziogbSVLkonUwW5rj4VQ4ChUMn6GSmYuFP0SxCo3KC1WOczEWT4VkvsH/HHZ90Zpgv9CW+AwimN1M8Rl6cVQ2+AN+EWJ+QgNGWJxrMNTF5HfzPT4L/VC0JqGfgNl6zJgxvn6gEaS+wB/K1Sk86BFoc6zh4trme/KT1ie0JQc2xtbWqUZ/4C/R+gTMf2h3OIfvUh/ZELo/x/+bAhuroyILHUtOVjyiNrXJyPiA9WyToJHD6cIKDsyBRXGI2pO6AZtT4dhQTxKcg2jmfCq4EPlJsYiWfbM5jValRzdwTtj2hMhPikfUprQ9wLB4nMgJ4e8c+Fa07UktdJLUlCg+5nwImEo+wDnAd1QRtRdmb6twyhH6kvyk/cDmafwEwjpFtBdmc/OBcoT+FPWV1EKnHpAIlBlzPlhhsfjii6c6mO9RKZIgigFzfJjfVamnFweru/ArxnSLBgWdskDepC0L8847r88P9pFoBmkaLaNRjRYTXaP1R9JBXvbt27fmlSVpYHI/tphzzjlLnzQWsz2rTkRjoTyy3crCCy8c62fRo3///n4uCTAkw2dZHmER1pE89JLXDAHSrvKa1UtFo9b6IrXQCcdCs1RoIRiGwrfBBhu4TTbZJPWBE0T36RHNw+xNOLCSw1nIkO9U4ycbbrih30ulmgqa1T98l30TigZDPZQFVimlbZhZNUd+NHvvF3wkDB3HEZ5TbX0SB41GtP4odzCBkTqp0dAA8Xss6mgGZnsawjyCzdP4CTTCT+oJooX8pmxG/Svu4DxWnwHCFzuttdZa/n0arI6kA8MkbV6TBhaB8BrxXhTM5mn8BH+y9inqK6mFjv1QmhBSEjRe7KtivRqumeawxIvOAZtzpLGFnVNtpURvhMmH1QhbJkuz3JneTdEgP7k38idtGWx2+SGNHPxepd+0c+w79YJJ0OQTkWO7/6SDnjh7s9DINDqqw73a7zYDIgX4CvmQN0Kbp8kPm8NVTz+pJ+wlhZDlCQGhnSsdQOcff7UJ12kIv8/3+D7+i83N94uC1XV2v2mI85OK++jwJSqEzTbbzP3Xf/2XX0Vz3333uZdeeqljm+Y44vbRYUnhXnvt5b/H32yiUSXYjJD9OejVso8PDhUXviczOI9lrSx75dyk3ZkpPHZNGsgQnJU0jh492i+LZolbucaFazHDm7zhfCpbQtX8HwfXJ31siU4acFYLZSZBXnE+vwGEKZnwyQoGluOFjoDN2NiRBp+84DthXlfa2yCE36HXwGZft9xyi7v22ms7NocM4TfJI3o22267rb8nNn1jHwPSkJZjjjnG24T9NRA75Sa1kgb2WGBmPoWcTeewFU/MZZ8Ng/xmuTwre/AdfCLpukx45P5YQQRUIAyJJU2G49osj6WCKSewOI/Va9iQ//Ff0kyvLEwLfmF+Y+nm+qSDXT/xNZbYxu1lxN9It9mbCBeNHUu/yatylWnUJ7NCHq288sq+wmc7AZaLP/PMM/53uXYIfkKkYcstt/RpZCkpy0FZPlorm2++ud+DgzSwY3M5yPuNNtrI2+LMM8/0/kE+M/QZHTolbwA/YDUI+YsfYfM0dRG9bMoQvkXdGWf7EMonqxYp20B6yGP+j/NDA7+g/NCzpw6i/PF7BunCxvgJPsuR1KngXH6fOqZe4IPsgE1kC7/Al1kGHOcn3CdlwdoeygHnskQ9nJicpT5rBAMHDvRtG/Xd008/7e+lHPydegv7sjHr9ttv7/3i+OOPL53x23AY/kFwgHzgO9w/PsVGePwd2+6///4+Ty+99FJfT2Nztn/hb3wfP4vzT8CHqSvwh0ZRrW1IM3UE90RgBL1A20NZiuavtT3Uj9w/32UjSWxBu+zPSbNhIBeh5/OnP/3Jj/3i/BT2u+++u6PhjRIndGg0cQoq77QP/AzhxjEyjTiFMyo+MByFkv1bqGQJSxNBigMhw7lUHGROeC0ykvuiULGJGWlN6vFxLoXurbfe8hul8T9Oz2+Tzjg437ZExyA4O5V+EvwGjTlpQWxQmf35z3/26WZPCXakDRsnHJ+KgQqb67PDpFWYkMb5cB4qSypn5j2wB8ZFF13k89WW/EUhD0kTtueeSDdikR2R2UE7DaHQ4TpUxElgb7Y6YL8FhjfJb9JAhRkWBs6jsWcTuxVWWMGnjQYq6j+Wz+y4yv4/5DOVMgKKSiOuwsCWVCxLLbWUz6skOI8lj1RAHMw7Iy1stIfQtrSEW6bzHdJ9wQUXdAgdsB5uCGm3+0Q0kC+UNSoJGnz+Zw5BEvwWFZ75JNdKC2F4hoxoiClXdIRuvPFGX4aijRfgW1TAtmEg4pOyiI+Q9lpA6CC4aNyHDRtW+jQe/IXNLREv5513nhda2JF0RSNn9ggIBAuNCjagbqGDklQXIZyoi9gfiOF6BBiijscg2A6woe0NbEl55nt33HGHtw3pwg/xm+j5IexJxDmUG2sgQxvg05RHyjH5RMeA+4+7JrZ8+eWXvRipB+yxRB6Q7/gzm4ji2+RTWF5DqAvI8/3228/nNfUmbQ875pr47Gyhs88++/iyf88997jbb7+99Gk6okIHO+AT1N1EirAPvkb9Td1P+T788MP9PZ9zzjm+no8TOlyPfarIc86Nsy/tMOU9a5qzUI1t8EeG59AcdCYQeKeffrrvvCTVS9wf+YIf0dnCz/keHV7KRHKJCaCgUAmceOKJvhKkEDH5qprhhVqgYFpjgpNTGYQHN0mFTqWLEubmaZxwlOi5gCDhPqLXorHDYXAc7pHCxrXifpPPqFAQYTQkNKBUTHHn2sHfuT69WQxp6bQKLnqQHoxP5Yjx+T1ED3bBqHavBhUoDTORA4wdipwskEYqJSqkf/zjH357fyq/JEg/BYwGhoqI+6TxKxfpKAd5wn1x/3H5wv0jvLE5hckKAa/D88gHrkHeUXnQyMbZx/KZDcq4Jr9No4fQo+BEz+fg2vye2TDpPPKCygvhhM1JN/anUgvTEr1X3odwz/xmeA4H1+D3meiIUOI+eG95aK+jeWMH6SNd5pNZoD7g3oheXHXVVe6aa67xEYOwgQ3hc3q0VLAXX3yx91EasWrmZSVBGaExLXdQtjkPSBOfUeYpO3F24CDvySsabBoRiPMlygL+Rl1k4sRsQcONcIna3g5+hzJDeTchxfPisEs0XdED/+Mc0giU1/DvpJ9zmNCKr9DRi0uDnVuuvGeF6Az1AfUpnbOzzjrLC1zyKgnqbnZQpgNExIT6mvJIPuYFSz+CHZ/A7kkH9Sn+Fdd2IgooR7RzRMWp26nTEMfUqfyPXfEj8tB8Nw7qOdo38qmcfbOKkGZAmml7sDU2x/YIPPPpOLABeUUHGcFJHuFrFh3v5v9NCYawQstRLqMbAb0sDEwFSZQi2rNlMhZOQgVilSYZQEGhx2aQCVQ02223nRcBJ598ckeB5p74Lg8IC3tPZPK5557rIxRRtthiC9+AkT4aUX4PYUjFyW9FwYFR2xZNAipaRAJpiUIB2nnnnX3jSMXH9Ynk0JMmjUTKbEiE30RwYWB6bfSWqsXSTkNmIXOOpAbM/AEbkRekBRtZHlYD9qPhJMoShV4yecDvErWgd8RBb54eThQaDvKSXuHQoUMn6R0gDnhQrVVIROfIX+6XioaeZNK9I464V6J6RAKj4JdEI/kNKjrsg5/iT6Q1WuHwO/gcjVYIn5100km+oorCgw5pwLAX145CXtKDI7IVBYGDqDOfjPPzJKwu4J7CUHk5XwG+R4OOTTi3Fj8J4VpcF5FRjtBHKf/8PmWffDrllFN8j9fST90HZieinfg5kT/KYrQuIvqCT4R1kcFnpI88vuSSSybxQ3xu00039RU95Z0ybOmiw1FORBpEQPBhImRE3qNQZ+GLRKquu+66SdLA9fmsnkLHbEwjT95bY1/JT4D8t3w0f8sL2APxSBnC55LuxfLUIg003ga+RLuAz1D/4GfYHdtV84QByhT5y+9QJ0X9E1/iN/IodLAtdQj/Y3Mre+Uwfwh9i7rS6pRUNQsnE0lhCIchAhpkCki0Em40ViC4gajhgM8wIOfZjcfBeVawOT8szFwfBQzlrhFCevieFUAaC3rVCC8aY8Jw4UFjRCUDZohyWAEBa0TIeyItfE7hslA1vTTmJlHwCPVhq2rgN20bbhq+v/71r74Qcm9J8Pv0thjiZK4OaaslDZUwP+B30+QjcC4NMj33qF1o6Glk8AkTEpxvlQJ5Ui2hz5JW8oZrEnZmmNPSgGDmf/yGPKQXTxrSEPXDLJC2MH1ZYJgM8U2FZPMpEHNJkDbum2GmnXbayVfKiEpCzPWA69NYIFrLHURJKE8IX4YV7bvYm/JTzt6cx9+T6iI+5zoQtQXvObjvOD/E7pRnrltvPzTwPw78iwdlRtPAZ5R37BhNf7UgCJg/xz2xMpJnJyLGyl0fAUBdetxxx3mbIg6pl0h7XmCUA/+nHeFeKD9xB76GyCX6T9sQdghonHkQNhEhop2IZ+aNVfsYJfwX/6FzHNcG4ft09imHeQPbYmPqFSLr2J42E19IgjxE3Bx00EE+mkUbjq/Z1JpUNRoXwTgYg6jBTTfd5HutNtFHTAxRBXp89OBR+ThUeBBSjOtxZwW1juCh54dD0IAzbMX/FDzCwrVUivQGGZ+nIaAHSqHh/6SKic+pjKgcqZSZC4Cv1KsBqwekkXuI2oQDwYgApdFjaDCuAasX9NYQkfwePTlLA77B//gQUQGEQDlxmQeojIkKEEmj8kbs4pNU7nFgA3yE0DIRFXyVycuEqesFFR3zysodNJqk/YorrqiLeMgCeUAjY3YPDyKy5At+SGemEeB73D8RuND/7ECI0BhuvfXWPi31AJ8nAka9gmCjU8EwXjk/ofGi7SGviLAxNMrQRD0jTbVC9J6IL1M7iASeeuqpscdpp53mh+wQweR72Bmg3NBRoD6nbeUeaxFz1sjTSaVNiNqX+YG0UQjaNBGTZoJI4/6xNRoD2yN28UN8Ig58iLqUCBD5xrM48TWLTFcUOqZGaZj5ERyUDMRYeaXZlVYUGisKMQXbVh6FB9GwuKGHrDAngvAnDTLOzH4gNB7cP4qYyrxW+A2rVHA0VHVcxYRv8Dkii0KLf+CkFh3LC+QNeR+1CQfCjFAxcwcaXZHSuCMOKIxhGvAN/rcHXFIZEqXLOzRCpBeBi49YpRStmMxP+DsVLOfjI9XOI4uDaxIhYoiv3EGjNHz48I5oTjPBD7nn0PbhwSRkhtupbxuBiVMaVYYzo7/PJGQaHCI+CI16QbmiXqAxwg9sSDypTrEoCPBdhuixbx7B/0kfHcO4g8g20RprOy2iA9Th3B/5wQR9ojB0yMJzskAnmFVKLAygXoval/KBD9IhKbeIorPAxuQlPgi0K/hItD4B+5y84jW+RdkK6/CKQscw1YeRqhUSfI+DxJBwrpnmsEJgv4vKxyGi5/E553JeIwoDFXj0N+13yWh+k4PzeE8kgxnw0YP5JvUQOoBDY1AiKcz7oVLgdxE59YpIYHPuy/K3HHYO51frJ9Viv4fDo+5DG1nYk3PIe1YwRO3CSiF6Ao1qXELwDzoMhL2JelkamPDN//T8EJmcR1mpF1wvzBc7sJtVqtWWHfyN73Idy+8k7Bzs0cjIWaMwXyPfstZFfMaBOIzzQ/yBoYvQDzmf60X9OnpY3cP5/B+XPvKevyHwmOuI30fTMGLECN9YcB6/WU/IDw7zxUrYOXntXJOf5HOYx0lHXDnDVtQFF154oY+0YS/m9O27774+ymw2zQLncy3qkTj7ErGmHiQt9YrYNQKzOflWKQ8oH5xDfUKehqSejGwXqQUKLoWHaAfzfaIVQBLW68UZmH/C3heE3KJYAaaRR0ETWakXZDTLCOOwSp0xaHorVGDcK85KiDAKeclBGmuFsCkHc6cYMiBP6Y0xbFUvzGnS+ID9ne9Ena3R0FtC9BHZCpdSU1gI5SIwOYd8SvI/0kxv5/zzz0/tn9VAT5nlyYSRQ0inbQePz3E/VFj1APsx76KcTzJRkkhkNZi98YFKfhL6UrP9pB5Q1om2Ef5nzkMUq4sIndMztS0DgJ4/jQzDzUceeWTp04mhsiZay5AI+YPoJSzPXLlyfskCBIaGqGeJ7jL8GW6xQb1ED5+IDn8L0xWCfbgH6lzmStQb7imNnwBpyTO0RZRjIjCVsHvBB6j/mWwO2BR74y8MWzOHB/9iiw2uTfQNW6QtK9iVdBGxiYN0cFDX1SPy3yjsfk0cViKpTsnsQWkzOg5Cd4RKMRiZTEWe5uBcboBhBUL+hKYQF9HzqBz4OwWZiqHeRH/PDioPGlGL1BBlYU8QGqm4dFolWC/Yq8NCfFRKNFRhb7BdYJjQhnzCfOc1B75BDxYxWs7/0haqWuD3k3yD//kb6ST0jJCtF3b96EFFSyVLJKEzhnJaDeoxGolydRET8emgResihpWJ5NEhivsuB3YyP+Q3GIagYaTeiDvfDq7HOfgNDSf1QPgbvOa6nJPkCxzA77Fix+Y5iHjIxyQ7Rg/KGRF3Ii1xkUyGcW0iMvUZ7S176RxwwAEd0Z00JNUvdpAOVpHih/XocOedihsGWoaxrp9N7agEWRKJWClH3IaBVrgIzVkhTgPGp1fO9wmzYSheR8EpOM9mnBMqJOxKRRGdK8Lvo8A5LzqMxLWZLMb1iACwURvns7w8bgUR51GhcOBA5JmFKXmdBL9t44gMOZF2GukopIf74HpMVouKGCaJE+bkf/avwXnjrmOQtixCaLfddvM9BCaIMWmUaFG0kJJG/ISVS7Z0lW0A2J0yC+Q7YBMbl+Ve4ioFCweT59ic/+2zMN+xDz5gwhMfSvI/8yHzlzA9XD8J0sq1+Y24vMV2pAvCtJYLG3PP5lfApDzzSf6PQrnid7hXvsN7SxPbEzDXAlEct2Mw1+P3SBv3Xw3Ynv1lEGY0zDTyXDNMK35C3rOKgvqE+UdU6HFL3quB/OS+uf+sq0LDco8ICTHbmS3wryx1EcvFGVqmA8QmeeYP5fwQO9o9cB5lit+N+z2D37M0kj7sHy0LnMO1zV/i4DwrV5xbT9gOgxV33BN+wgaK5FG0fJFu6kVrexAIzFsiTSHko91zZ0A+k4Ywn5OI+gX24R55HbZD2Niuy2u+Z+2gbccQ1pH8jfPJU3yGvLTyHwfX4zdJR7XlPQ212Ibv7rHHHn7COluMXHnllb7ui/MT7pvVWUTKuS+G52yTT0gd0TFn54JhQQtfV8KMjIHoraY9+G0reBiRSijuPD7H4NwokMF8HhU5wDn8LXQug9+y6/Ea+G2uY78VHpxHY2IG4H/eY5S48+3gt8kPDt4niRPSYL8d5zQMReDUiDBUetz9ZiFqU2yOM5FnUSeLwr1wDteI+kkaXyEvObgG+cNrs2cU8oJzzObkEwU3mu9cA7/h7/hSOf/j3DD/wvSUg+9wXlKh5nexL4flET4S/X3Saa9JZ3g9PuM3zCejmM+ZL8alyXwtenCepS0tUXviI3zGbyfZzLBzOD/aQKTxkySwP/djAiEL5KvlRSVIf9q6KHo//I75btx3Ofh+eA9cx8pD3Pl2mO0tfXFlgTzi76Qv/Ft4cB6/Vw+Rw/2HeYC9zeZp/M3OoR4KqcVP6klcnZN0hH4BVh7J6xB8BFuavfnf8oHf4j02NJ/gb5RfXmMzrs/78LfDg/OylvdmELWp2Zx0JtV7BvnBOVYPGbyuKHSs0GBMQCEy7kfDahezhlA0H1Qvy0NR88zNQexUcogksGcoZHnNGDLXBnyAAoQ/ROE3zU94zXeZi0WUyXzDO1zECUXrEdrRXjN3jmgIr/ERGnKreELMT6iMqbz4Pj1a5k1ZpcZnoR+2IkTPiGoTaWXzPoYduOdqBFgrE5Z3/icawdwT7IsfhMIsCr6CL3EO0PbYTtFcqwh+In4jtCUHNjZbg4nzaH0C5j92cB18zCJf0LVfv36D/asycDIqlDAzlRKFlguhJlGFOKMl0KDxrXazo7xBSJ57Y+4PajpPMLmUYQDsw3h6mr1zcARsZnBvViHxXf5n4iNPdWayJWKKHgDzEpgYm9TL43tUSixXROSw7w6v+S3radh5Ip6obeoFExopswwrMUekWrCd+QkgbthzheWwVEz4IXPVGCIr16jjC2yKx4ZxiCTqC/yMSbQmlvPkJ9gF0toG36dcsqU/eUSFzdy5tpkTMcF21CnmJ3SMGf5mc0x8Efvjiwy1U6eWq7PwBxYYcA0m6tJ5IiqBr1nDVu77ovOoVJ+Zn1idwvl0emhzqVOAOoGhK8pN0rX4Pm0hmsT23aE+sshpqod6WmJQ1BTgTTbZxA+XcBGWw1KpMWcHp+Nc4EFl0Tk6rQo7lXJf7DdB4coT2IPKlMqCFTtp0hcdNzUn43/mAVCZMJ8AscIcG5YnshkcDRc2TqpU+D4HzmorPsg7KnrSxpJVxtlxVs4DVVATE7VNvaDRRVAwtIkNqsH8BGi4mSTJykK2NmC1FhMsmYjP5FtsjK8kQX3CQaOFUKIBZCweoc41EEuhMO5sP8EukNY2zBVgVRW9StJOueTeiLjScBeZsGxTF9Dg0F7gg+Qfk22Zv8fCCRuSSLIv17K2h7k9zP/DX2i8aHeYB0bnijzNg5+IialUn5nN+N86TTyqh/mztLesNqPtwE8qtT2HHnqo3x+LzhP1CXWTjXSkEjqGOR3KmqgOE+xYCovi4mImdgCnpnFsBBbKbBYWPkszTtgIyO8kqEjMWco5Qgi9IVRvCNdA5NCzxlGohFDROBuVCtcu13CFmJ+Qbyzxx+nYIZrPWAlCT468bDTN9pN6QF6nWaaaRJKv4CfkfyUBkgbsSqODyCa9RBJZ0ozYQZzgg2nLiTViCAMmMrMbL9FExBgTdxsh+uKo5CvcJ6S1DWXAyiZY+emM+iOOcnVKveD+meZA75oGj71b2DeIiCJ2zZIfVqdQRxERQvDgfyyOwf+4fq1+nYZWrFNqoVY/iWtromBbRA6agZ2cKftMUreHSFNnpfETnk/JwiH8BH9g+JitH4gGZhI6BhfioDeGamJXXsJNqCcr2FR4JhDqDSH4doJ9OOoJjhTdDRNHQnwgVqmQWGHF61oaRqucbLgTtc6zXHjP542mFf0EIYiIqJZ6+0oc+IRFEBmKIc1USNU25OYnVE5EQYgmUklRv9BYNoNKvsI9Qi22yRPN8BP8gSgwnSYaLVbX4TfV+glY28OwJ4/Yoe1h+gR2sbankajtyUZcWxMFX0D48ltEctm01YImWdoehM6QIUP8a6tTiKjSya5K6IA5Ff9HDwh/VOQLRGl0kyiczQ4wB6u2QgqJ+gYOaK/FxMTZJm+EDVW9/QTwD+C9ve5ssAvk3TZ5wuqT6FEr5if8z8EwOXaxz0V+SFOfJfmI/Z+WOM1hPlK10KnE4MGD/SHyB2PmDDOI/CHb5BPsArJN/lCZyS/NtE254IrWhAshhBCisFSM6DAezwQ8Vs9kWS3ABFSewCvyBzZt1twHkQ3ZJp9gF5Bt8ofKTH5ppm14ther+eIoK3SYnMp6dpaTszSVIy3MhmcGtcgfbI3NSgiRP2SbfGLbycs2+UNlJr/kxTZlhQ5L+c444wy/3JNJgVkmBzFrmn1YRP4In5At8oVsk0+wC8g2+UNlJr800zZEjizyGiVR6CBq2KuAhwHa+yywtw7LQ0X+qHUJs2gcsk0+Kdry8iKhMpNfmmkbtrOxTUajJE5GZkkWO54icLKKHCGEEEKIPKBVV0IIIYQoLBI6QgghhCgsEjpCCCGEKCwSOkIIIYQoLBI6QgghhCgsEjpCCCGEKCwSOkIIIYQoLF123333xE1y1lhjDbfooouW3mVj6qmndt9++23pncgTo0ePdr179y69E3lCtskn2AVkm/yhMpNfmmmbXr16uTFjxpTeTUzZR0AccMAB/mGe1aCdkfOLdhLNL7JNPtHOyPlFZSa/5H5nZBg/fnzplRBCCCFE65EodHjsw1tvvSWxI4QQQoiWJVHo8Kyru+++23344YeJTwQVQgghhMgzZYeuxo4d64YPH+5effVV98knn5Q+FUIIIYRoDcpORgaiOVNNNZVbaaWVvPBJy2abbeauv/760juRJyabbDINSeYU2SafYBeQbfKHykxlGKEhn7p27drhy+UYN26cb/uZwlILzbRNOc1RUehUy+DBg/0h8kefPn3cqFGjSu9EnpBt8gl2Adkmf6jMlAehsfPOO7sllljCCw9ETyUQOczRPfPMM1Odn0QzbTNo0CA3ZMiQ0ruJqSzthBBCCNGSzDnnnG6hhRby0Zy0ooVz+/bt6xZeeOHSJ62NhI4QQghRUKaYYgrXo0eP0rv0EP2ZZZZZSu9aGwkdIYQQQhQWCR0hhBBCTEIt83PyhISOEEIIIQqLhI4QQgghJkERHSGEEEKInCOhI4QQQojCog0DS/CI93ahV69ebsyYMaV3Ik/INvkEu4Bskz9UZsoz99xzu4EDB6baETnKTTfd5O69997Su+xow0AhhBBCNJyizLWpFgkdIYQQQhQWCZ0JtNOwlRBCCNFOSOgIIYQQorBI6AghhBCisEjoCCGEEKKwSOgIIYQQorBI6AghhBCisEjoCCGEEKKwSOgIIYQQorBI6AghhBCisEjoiIYw1VRTdRxdu3YtfSrywhRTTNFhnx49enRsET/llFN2fN4KG2ny/J7wXmo9irZ5aHhv3bp1K30qRHuhh3pOoN12Rm7GQ/AOO+yw0ivn7r77bvfEE0+4X39tiKsVimY9oHC77bZzffv29a8/++wzd+GFF7offvjBHXTQQV74wHPPPeduv/12N27cOP8+b8w+++xu2WWX9Q8tnHrqqevyPJ+nnnrK3XXXXW78+PGlT36jVR/qGZbDhx9+2D300EOT3Furo4d6lofysffee1dVPoryUE8JnQlI6NQfCohx6aWXuquuuqpwFWwjaFalfdRRR7kllljCv/7ggw/cX//6V/fVV1+5yy+/3IsGuP/++90ZZ5zhfvzxR/8+T0wzzTTugAMOcIsuuqiPQtWLO++805199tmTiLtWFTphObzuuuvcxRdfnFvhWi3tLnToQPbs2dN9//33pU8mZpZZZnFbbLFFVUIHYfzss8/GfpdIPZ2jcteV0MkREjr1R0KnOiR00rHHHnu4jTbaqO7DohI6rUe7Ch0EDmX197//vVtmmWXcnHPO6T9HePA3+z8ky9/KnQMvvviij9Y/+OCD/n0ceRE6mqMjRBvy4Ycfunfffdcfo0ePbrnGb5VVVukQOfRkqUztfmo5Pvnkk0kq91YmvDeGKIt0b+0Ottxyyy3d5ptv7uaZZx5fHjiYtxb+Hx5Z/lbuHI7FF1/c7bXXXm7eeectpSi/KKIzAUV06k9cRIfJkNYzzgKRoO+++85HHOIaZArfjDPO6Icw6HFk4ZdffnGff/65v77B5Nbpp5/ede/eveL1qGxIE9cgjBsy11xzlV6lh/kxX3zxhfvyyy/dTz/9VPr0t0mlM888c+mdc++//36qCBn3Qt6Yj5POb775xs0000wdkZuQE044wf8WjBgxwtvt559/9u+j8PnHH3/s73+OOebwdgCEB40qeVsJenxUmpDlezfccEPH7zGPaOjQoZPkf61gixlmmMHnnQ2PJQ0PGNjk22+/9b4a3gfXYbgtLUTRTHRhP7NJHJzD+eRdtHyEPmi2pxz27t279Gl6+B0rh3E+YeWQfDPbpIV8I33kXVbaNaLzu9/9zkcxEDmdCVHQf/7zn6V3E6OhqxwhoVN/4oTOggsu6CfFZcUqwRdeeMFPFKWyNmiw1157bde/f39f8LNWsDSON998s3vggQf8exqG9dZbz0/UpXFJI5y4xttvv+0eeeQR9/zzz/sGAU4//XT/fxboeSOyXn31VT90hKCB1VZbzW299db+NRxxxBFeEFWCOSxbbbWVb2iBUDMi4b//+7+9PWDs2LG+IUdwIFhMeCC2aNTsfqLQEA8bNsyn8e9//3vHbyB+hg8f7t566y3/Pgl+a//99/diDF5++WU/dJbmvm688cYO2+BrF1xwQd2jUkx03mSTTdx0003n7QKVxKsJZyZy33PPPT5vYbfddnNLLrmkf50GfPy+++7zwmLdddf1AiIJ7MPv/Pvf//blgwidEfogf7vlllt8+f/b3/5W+jQ9lEN8giEL7o37NEjfGmus4Xv50047beZyiHC69dZbvX9mpV2FDnmM39dzjlo1sNDk2GOPja0r8yJ0uvbr168hagSnp6JuBaxibxfoWVoF3Ch22GGH0ivnG38aMWb/b7rppr7hyHLQ8LPCBvFBb5HJcYCw2WmnndwGG2zgCxTnxX2/3IGYef31191rr73mJ+3tu+++boUVVnCzzTZb6ushtkgbaaTxZ1gI9tlnn9jzyx30zBdZZBEfDuY9aaOxowFB0Nl5iLM0vd8J5dutueaavgfP92iwn3nmGd+AI3T4jApz1lln9Y1V2ECR1/Z7cQfnPvnkkz6SQJqZJ8DnRJ7Ih1deeaV0pXhY+UVek89U1pw/cuTIVBGd7bffvqNipYHnntJEuLKw8MILu1VXXdXbFbsw4ZP8jOZDeCD2yGv8gcgJvg/rr7++F51x34k78EXKC2lYYIEFyvoif8N+8803n08r+Wi+Efrge++959ODv5L34TXSHPwOooJ7Ixr49NNP+98gXyjvG264oZ8nkrbchAd10ptvvunriaw0oz7LI/g/9Wlnd9SZ48ek5TihQx399ddfl941Fsoq6Ygjm+wWohOh0AwYMMBHAoB5GjSuNMj1gPFuGpZqKg4afRpBBH49elhcAxFA49gKXHnllR0VGkN+2KYcNIhMhjZhRRQIsRIO17UyRDWYLI0wqAYaDcRLOCRYCfwWf0FUNRKEzVprrdUR3Vp++eXdcsstFzsUKkQeUERnAoro1J+4iA69zdVXX730qXOPPvqoH/KxyZJJB+FyogRU+DSihPUZxqJCX2ihhfznhL7pyTLkE3eN8GCeBQ0Rdud7XIuIzu677+4/B4Zs+JxeZtw17GDYhh4swy9cj2gEEQbC+mEe2G/EXSN6IJi4FhEBojmPPfaY79UvvfTSpav9NnSTJqJDQ7nUUkt1NELkD4KChoqoFZCffEaPHxtZeeDesF1cGjneeOMNP0RDGjkskgFENsiHpCEFVoowlEPjjA24DquC0pIlooN9iIjNP//8fj5DuQNfwt8AX8MGROjwU8TYp59+GpsXdiD2uHfykO/znqEeepsm0PE/wv3vvPNO7DXId/ydvOEeyZ/HH388sawQUcNvOd980PY+CX0Q25PPRFBCMcS1GWaMu3Z4cO+ki9/gt7A518OXyF/yjt/mdyiLcdcID/yXzgt5zPfIJ0V00qOIzsSUi+hojs4EOttRmk1nzdEh+nL44YeXPnVuzz33TJUOhkWYy2G9Y8byWQL8l7/8pUM4UZgOPPBA3xhVYtttt/UrFWj8qawvu+wyP2+F+SaE9YGN404++eRUFeghhxziVl55Zf+axuucc87xlXaYB2eddZa77bbbSu+S4R5Z6o3YAUTOMccc44eaWFJtIMrS3OtKK63k/vjHP3ZMZEZMMK7fiOXlRBOY+2FikWG3Qw89dJLvI4j+9Kc/+XlVgLDgd2hw05Jljg7RpV133dVHSCpR6/JyGnzmP9n5DDHiD+QDtgBEMP5sgioO5jwhUIF8xD5J90f9dcopp3REWBAa1L0IidAHbXk5Q2Kcb1BuEK2V4Pr4OsPEwJyff/zjH354jOFjYL4aw782fFsOGultttnGN4ZE8vA96omsNKM+yyMIyzzM0WH4mrkxcUInL3N0NHQlcg+TLcPeelyB4hx6vrUQXpcIDXNYEAPlDqIsRAyMaFqrodK95hUiEQg8m7zMPCNr3A3uZ7HFFuvY8wNoZBGWeQXhhlAkAhbnA+GBiLOIGFRrv9AHKvkTfm95bjTCb9KUQ6i1HIr05KF+yEMaKiGhI0QMNNJEUFglVu5gHwkbrgGGgdKsGioiRIQYyuB/oMFfZ511OlZVAcMMRCr4H2gUiXqkmYBcLURCGC4iwhF3JAkJ5n5tttlm/jEKRCyYHxbnA+HBPC+GhoQQ+UFCR4gYGL5hvkqlg7C5NeQMgzE3Ic2QUhGhx09khlC1RRiYl7Liiiv610B+McRlvcCXXnrJz69pJIgvhiGPPPLI2MOEWQgijeFCluYT2SOiw7BmnA+EB6ulmJsjhMgPEjpCxGBh+jQH0QgiBsynufrqqxsancg7LCtHWNjGesy/YEWONf5MQrY5QERzmJdBHjYS0sLcKSaDxx1x9iKix95FDFshyrL4g4k8IUQ+kNARIoaPPvrIT45lZVilgxUuTGA99dRT6747byvCRnes0AEiIwztMUmXVU1swmcQ/WJVWx5h5ZStSgPmH5HeOPuHByKP4TAhRH6Q0BEiBpZaszLluOOOq3iw8oTGXT3530Ak0ugbDPswAZlhIHuUAVEWhGTaFV3NhpVM4RAUO/byqIk4+4cHEb1w524hio4mIwvRQMJhAiIHbPbH7r6VjqTtBMIhDCbLsgyXeRlpD4ZpGkV0SIQISVwa4o5wMnClFTFhHjCpljk2cdfk4O8scY2DLQDY3wXIb+bpsL2AgZBkfk614jBcao1NmR8Tl8ZKB/NvwuW5XJc02WGwNJ3z4q4RHgzLtULFX09C38Qf2A4iWubiDs1lEs1C++hMQPvo1J967qODgNlvv/380l1gPxr2pWFVFBufUWFS0dociUpQGXPQIIX76Jx00kl+Yz7gekn7liTBJmgHH3xwx/eq3UeH/YHY3A6Iehx99NF+Uzbyy+a3IEjS3mu43JmHdrKpVtI+OjwbCYEHXL/cfCP2SiHqxT4vcfCYgR133NG/Jj9NABDFQQhdeOGFqe4hjvPPP79jX5xK6ayElX/SSJrYb4aVYQcddFDH6jA2suPvZpdysAGe3SvPluKBh1n30WGStAlD5hGxf005fwztxj467MPDHlD13EeHLQHYJ8m2BiDKddppp3kbszrNdijP4ptWDrWPTnbIO/b+qtfO8NXCY1uoo+IEvvbREaJGWK3DCidrRGnQabQqHZwXVygZfrKhFP4e991yBw1co2AuC4c1IFnuFcgjGrOHH37Yv0+ChzXaYxioSOOuaUfYoMdxzTXX+MnJEJ7H/B02GatW5AAb+6VNZ6UDyB+EKrss85oHY4YTlclH7jfu+9GjXJ4UEXb9RmiQb1BrORSi3kjoiJaFpcxEBhgGYRKwVbTVQu+bqAtzTPK26RmNMOmjt04UKu29Iibo2TORlgnTlb53/fXX+x1vESi15gEigZVooaDhM8QEw1a1wLO1eOI8w2O1pJP8wHd4BAL7+ZBPQLSK96ST/KvVt4oMjwmhHPKIinqUQyHqjYauJkDvop1oRqg3fFwBE1NpMPhdHnRoMGSUZoUKcx94dprtQEwPkgbUYL4Kz7xiWIfefSWYd8JwGHNXwqEroJfJfBLC+4SEs/Q4iVRwHWvYwzwgWpRmeIA8YsjCVvzQABNlMRg6YWIvy57T3CvCgg0MiX4hlqwRYvM7G4JgCIV0W4SE++ZBjfydPErKA77H8EW5DRJ5MCkb6bGKCZioe+yxx3ob1grDSqziIjwezkPKAvlBmhA4+KhFcAyWmeNf5AGH3UdaWIXFc614grw91gOfJ9pVbiI2Gy2ySg0oqwiJchEwHmlCOQHOv+OOO7wADH2Qp43jB/gOE8MNJlCn2eSS/F533XX9/BpgOO+RRx7xr4FHejA/h4d+pvFNfJ09lfA3DV1lhzzW0NV/KDd0JaEzAQmd9iLpWVd5oGi2WXvttd3AgQM7KuMRI0a4448/vqZhq84Au0A7l5t6o2dd1YaEzsRojo4QoukQHWMCrlXERBguueSSlhM5QojWRkJHtDSE4RleYFO6tEe4LJqhi+hwhagPDL0wNGEwdNKs3p1oLkRlsHdceUs6GIpGDIPKoWgkGrqagIauWpeNN97Yrbrqqh0VZiVsngXzDHj99ddf+x2NWQWUB4pkm//5n//xc32AeSnkczi3qpXQ0FV5mPO1+uqrp94bh7JHh4N5RXQ62ECSJe/hRpNp0dCVhq5AQ1eisDBpl71v0h5M5qVytULJShEmVYr6woRp26cHWKqdtN+OaH3Y04iyFVfm4g7O5QGoFlnlWWT1mKAuRBwSOqJtQeSw5FrPJqo/rK4Ln+rOah82yhMiCttD8BgVlvEL0Qi69uvXryHjSywHvv/++0vv8k3aYY+iwDLRolQq9AoJ3bLvC5sHpjmoWHkQJ7u6ltudtjMogm0QOCyRZ9k2+c3SbeqCvOV1FmyHZDXG8RAl5TlmbLEQLW9JBw9KZS+kM888s+MhsNVQpPosC0Sl2ZG6kRuVpoFhwwcffDB26Iq5W0wPaAZMYWDX9zg0R2cCmqMj8oJsk080Rye/aI6O5uiA5ugIIYQQoi2R0BFCCCFEYZHQEUIIIURhkdARQgghRGGR0BFCCCFEYZHQEUIIIURhkdARQgghRGGR0BFCCCFEYZHQEUIIIURhkdARQgghRGGR0BFCCCFEYZHQEUIIIURhkdARQgghRGGR0BFCCCFEYZHQEUIIIURhkdARQgghRGGR0BFCCCFEYZHQEUIIIURhkdARQgghRGHpMmDAgF9Lr+vK4MGD/dEKLLXUUqVX6Rk3blzpVevRrVu3lk5/kZFt8gl2Adkmf7RbmTFfHDt2rG9je/To4d93FiNHjnRHH32069KlS+mT/9CnTx83atSo0rvGMmjQIDdkyJDSu4mR0JnAQgstVHrVHnTv3t399NNPpXciT8g2+QS7gGyTP9q1zHz33Xfu2GOPldApIaFTgTgDFZnevXu70aNHl96JPCHb5BPsArJN/mjXMkNk56KLLpLQKVFO6GiOzgR+/fXXtjra8Z5b5ZBt8nkYcX/T0blHO9tFpENCRwghhBCFRUJHCCGEEIVFQkcIIYQQhUVCRwghhBCFRUJHCCGEEIVFQkcIIYQQhUVCRwghhBCFRUJnAmx01E5HO95zqxyyTT4PI+5vOjr3aGe7iHRoZ+QJ9O3bt/SqPZhqqqn89uEif8g2+QS7gGyTP9q1zPzwww/uxBNP1M7IJfQIiApU81DPVmayySZz48ePL70TeUK2ySfYBWSb/NGuZUYP9ZwYCZ0KTD755KVX6bGKrxWZbbbZ3Icfflh6J/KEbJNPsAvINvmj3cqMiTraoGHDhknolNCzrhoAztaqB89IiftcR+cfsk0+D3u2UNzfdHTu0W52EdmR0BFCCCFEYZHQEUIIIURhkdARQgghRGGR0BFCCCFEYZHQEUIIIURhkdARQgghRGGR0BFCCCFEYZHQEUIIIURhkdARQgghRGGR0BFCCCFEYemy++67N+RZV3vuuac799xzS+/yTSs/t6oapp56avftt9+W3ok8IdvkE+wCsk3+aNcyw7Ol/vjHP7ru3buXPukcXn/9dXfbbbfFPuuqZ8+e/uGjzWCClnFDhw4tvZsYPdRzAtU81LOV6dWrlxszZkzpncgTsk0+wS4g2+SPdi0zeqjnxOihnkIIIYRoSyR0hBBCCFFYJHSEEEIIUVgkdIQQQghRWCR0hBBCCFFYJHSEEEIIUVgkdIQQQghRWCR0hBBCCFFYJHSEEEIIUVgkdIQQQghRWCR0hBBCCFFYJHSEEEIIUVgkdIQQQghRWCR0hBBCCFFYJHSEEEIIUVgkdIQQQghRWCR0hBBCCFFYugwYMODX0uu6MnjwYH+0ApNPPnnpVXvQq1cvN2bMmNK74rPiiiu6JZZYwnXr1s1988037qGHHnJvvvmm22effVzXrl39Oc8884wbMWKEGz9+vH/fLGaccUa3ww47lN459+mnn7qZZpqp9K427rzzTvfaa6+V3olaoMxAEctNHspBLbRbfWZMNtlkbtiwYa5Hjx6lTzqHkSNHuqOPPtp16dKl9Ml/6NOnjxs1alTpXWMZNGiQGzJkSOndxHTt169fQ9TIGmus4e6///7Su3xjhbxdmGaaadzYsWNL74rPBhts4CYIejf//PO72Wabzb3zzjvu7bffdoceeqj/rG/fvl4AUck3u4Kfc8453d577+3TwNG9e3e3/PLLd7yv5XjjjTf8IWqHMgNFLDd5KAe10G71mYGw2GyzzXwHrjNBZD744IOxQud3v/ud+/rrr0vvGsuqq67qO7FxaOhKCCGEEIVFQke0LfREPvjgA3988cUX7tdfGzKKW5YffvihIw0cn3322UTvOUjnt99+W/rGpN9JOuidCyFEu6M5OhPQHJ1is8cee/jhK+z8+eefu4suusjde++9E4VaO0PkGGE6GFr78MMPS+9+Y6qppnJ/+ctf3DLLLOPfMxz15z//2b+uRGfeV5Eo8hyda6+9tqMOvO2229x5553nfv75Z/++FdAcHc3RgXJzdCR0JiChU2yShM5xxx3XMT/rkUcecTfffLMbN26cP2+++eZzK620kptnnnn8vJlKMKeBicTMb3jiiSeqHpeOsw1C5+CDD55I6Bx44IH+dVqYx7DUUkv5+T8zzDBDqnlpP/74o3vrrbfco48+6l555ZXSp7+BICN/FllkEX/tuEouiffff9+dccYZHfNAmGNAfjNpfN5553VTTDGF/zwt99xzj7vjjjs6RB351b9/f5++WWedNdUcBhr20aNHuyeffNI99dRTE81RmXbaad3iiy/u57AsuOCCvoFJA3Y655xz/OtVVlnFrbvuuj5taSFNNBKkicYkmqblllvO+8R0002XOk3GL7/84v2a/xdYYIEO+3388cdlo5v45mWXXTaJGO9MJHQkdEBCpwISOsUmSejE9WQROjQgrISaa665Mk9U/+qrr9xdd93l/vWvf7mffvqp9Gl6GiF0pp56arfddtu59dZbL1NDCzR4CJOLL77YPf744/4zVoWxUoeVbNWUHVa8EaEir4Hr7LLLLl5UVrMw4JprrvE2Ja2IJGy9ySab+HRmEWDw0Ucfucsvv9zdfffd/j0ibuedd3a9e/f2wgBRkJYXXnjBV76w+eabu6233rpjUnMWSBP+hKADrkF+seAjqyg0GNbEF7Lm97vvvuv+7//+zwvgvCChI6ED5YSO5ugIEWAN5dxzz11Vo0tPm547jXZeIFLCioSsIgeovFgZtuWWW/oVFICIWHrppevWQdhoo418tKSa/I7C6qG11lqrKpEDRIC23357v+wf1lxzTR+NSRPVaxSkCeFtaeL+Vl555apFjhDthiI6E1BEp9hkiegQ/fjnP//p/wfyiYm9laAhXHjhhTsa66uvvtr/TlYaEdHZd999fYPNvTIcwvL6SkNriASiGLPMMot/TaTq7LPP9kN8Z555phc/wHXee+89P8yVFoaIhg4d2jEUQ7SiZ8+e/jXRi6w9wAceeMBvZUFEZ8MNN3S77bZbhwjgXpngXQmG87gnsx8+cMstt7jDDjvMR/hef/11H6HDzmmXMhP1IBIGXIMITBaxSZqIKtqwFPl/6623usMPP9z7Ap8zMZ0oS9bl1eQ990JUbckll+z4DfIeGyTBkBURtE8++aT0SeejiI4iOqChqwpI6BSbLEKHYYFQoBx11FF+zk0laJQ41wQADe/JJ5/sX2ehEULnkEMO8REAYP4Fw0bMxagEUYRNN93U/z4N6fDhw/08Jhrv6aef3p/DcNYpp5wy0aqwrNx0002lV86dddZZ3hbVssUWW7g//OEPpXe/bYbH0FslVlttNf8926zRhCoV56KLLuo3XqRxP//881MJp3qAMNp11107IjlXXXWVz3vmljE3Crg3hE8tadJk5NZEQmdiNHQlRJUwWTMt4bnVDJs0AypHhkJsU8Gko1+/fn4Yznr6YBGYcKIqlSzDdHHXCA8mGTOBOS5fwkm2NOpx348eXI9zK+Vz2ushcMJJy2GaQmoVAESuiNLEpSF6kP/h/dnr8DNs0UqiRIjOQBGdCSiiU2xqiejgw/RYKkFEh3Ntbg7DKSeddJJ/nYVGR3QYfmGoI6khN2hMEQncF6+//PJLd9ppp/kVSaeeeqpviIFID9GhNI0tw1sMWzFZm6EgI4wQsXItbXSC33711Ve9LS1CFY3okFeVxCr3hwBBANrQFVEqrhuN6DB8VM2KOgTh2muv7YeJmOsUCsgkppxySi8ObX6QRZmOP/54P0wKDBuys3Etu88qotOaKKIzMYroiLYmnORKDziMSLQbNJos5Wb1ULmDSb1hxIS5Li+//LJ/zXbvlocIBKIrcdeIHosttphbZ511vBDh+gYVpV2PyErcd+MOlsuzBf5WW22VuJqJyFTcd8ODtMw+++wdfsJwEIKuXhApslVXzNVZaKGFYtMRPRgGNZEjhKgeCR1RaIiGMKnWGjEmX2aduNnuEDVgAvJ3333n3zOnhom6laJCcRA5YC8aBI8NFRFReP755zMLUEQYk8aZyxIKp1ogMsTcqloiJFGICLHqLc1QmxCi/kjoiMLCRmpED2yTNxpShmDa+YneDF2x+d9LL71U8SDSwoqo/ffff6IN4hjWYNUUwzs86frFF1+M/X548JsmlBA7LN8nrA1EUNib5dJLL/W/Gff96MGQlQ2vMMRDpCQOzov7fvR49tln3Q033OCOOOIIv89PPeE+GRYzCOXHpSF68ODZLKvZhBDxaI7OBGx8ul1ohzFtQv4sM2ZZtS3pZWUQDTcNGrTjHB1WXSFc+L/ZHHnkkR33QCPOfJfojstZOP30071gAgTXscceO8kcnd133z3VCrMk6jFHh6E1Nh20aM4BBxyQSkytvvrqftVVdCWY5uhMjOboaI4OaI6OKAQ0+ERpKh1EcFhWzMZqJnLoGTMJlkcFVCIckmGFTNxvRI+ZZ56547fAdv3NA9yPDQsxhMecmrh7KHdEIYoSd17SwX48fMcgPZYmKmzm+sR9L+kIJ+mC2Sy8LjDXJe775Y5GDy/RMMf9bvRgL6C4tIT+iUBJ66PhgaC3ocMwv5goja3ivsOBndJMpBYiTyiiMwFFdFqDv/3tb17EVILGnArZ7IrIuf76633P1YZPIK4ni1hhPgpLe4Gt8tMMH1D58x2bC8QwzBVXXOFfZ6ERER1EH3NiuFcaSXr/WYXYnnvuOVEvn4eKEulICw02jauJE+bkkM9sxsikW1bG2VBWGrgeDa/lN5vYXXjhhW799df3kTwTVWx0mDU6Qd4yxAn1iOiwiSGRmaxpQoiQZ3aPFtEhgsMzy/ic6zDnLMs2CEBEj315eI4Zw5CIG2ADQiKfofgJoXd+7rnnptqbqFkooqOIDiiiIwoBDRth/EoHS5VDkcPEWSr1UOQkQUUfToyloYn7jejB0JU1SDQi9913n3+dB7gfa5ypHNPmY3hEKzFEXdx5SQcTcU3kkMcsL7fGic+xWdz3kg6uZ/mNKHnsscf8a4bEWMJuZE0nR70jFtWmKRRyITQs5CHg51nzjgN/NeHFMKv5O40meRv3HY6wbAnRKkjoiMJBpc2kW3rgRGroCaed1Ml5zOFhgu3333+f2LONg94180H4vWbtnpuGhx9+2A/bkSbSmOWe6glRByJkPI2bHZZrTQf3go1ZBWYPmSTycvvtt/uIAz7QWfcawjwkhkzrlaY777zTP3QUgZcmMlSJiy++2AvFaiJDQrQCGrqaQLv1UFo11Lvjjjt2TD4tB5U1jcBzzz3nG9WkYRom6VqPmfN4OrRV9PwOD3NkaXq4Y24SNF4MSTzzzDN+DxYatGqIsw3+yX4xtoSa4R5C1lnhfnhSOFGqrFELHjsQNoLbbLON348nC0QhECQ00ggeg/lNPGoiXJmUBqJU2JjHUESFLBvzsRKLyEXWe2VDRHukhfkcq86wLwLNoilZYd8f0kRUpJqo0UMPPeT3MDKYg9a/f38/TBs3bFAO8g5/t72RiDJxPeZvlRsK4TlYDAOzsWNe0NCVhq5Az7qqgISOyAuyTT7BLiDb5A8JHQkd0BwdIYQQQrQlEjpCCCGEKCwSOkIIIYQoLBI6QgghhCgsEjpCCCGEKCwSOkIIIYQoLBI6QgghhCgsEjpCCCGEKCwSOkIIIYQoLBI6QgghhCgsEjpCCCGEKCwSOkIIIYQoLBI6QgghhCgsEjpCCCGEKCwSOkIIIYQoLBI6QgghhCgsEjpCCCGEKCwSOkIIIYQoLBI6QgghhCgsEjpCCCGEKCwSOkIIIYQoLBI6QgghhCgsEjpCCCGEKCwSOkIIIYQoLBI6QgghhCgsEjpCCCGEKCxdBgwY8GvpdV0ZPHiwP1qB/v37l16lZ/z48aVXrUf37t3dTz/9VHon8oRsk0+wC8g2+aPdysxkk/0Wn/j222/dMccc43r06OHfdxYjR450Rx99tOvSpUvpk//Qp08fN2rUqNK7xjJo0CA3ZMiQ0ruJkdCZwOKLL156lZ5WFjqTTz65+/nnn0vvRJ6QbfIJdgHZJn+0W5kxoTN27Fh31FFHSeiUkNCpQJyBikzv3r3d6NGjS+9EnpBt8gl2Adkmf7RrmenWrZu76KKLJHRKlBM6mqMzgV9//bWtjna851Y5ZJt8Hkbc33R07tHOdhHpkNARQgghRGGR0BFCCCFEYZHQEUIIIURhkdARQgghRGGR0BFCCCFEYZHQEUIIIURhkdARQgghRGGR0JkAGx2109GO99wqh2yTz8OI+5uOzj3a2S4iHdoZeQJzzDFH6VV70LNnT799uMgfsk0+wS4g2+SPdi0zPN/rlFNO0c7IJfQIiAostdRSpVftQdeuXd0vv/xSeifyhGyTT7ALyDb5o13LDOKONlZC5zckdCpQjaPYg9VakVlmmcV9/PHHpXciT8g2+QS7gGyTP9qtzNgDpREWQ4cOldApIaFTAXsycbvQq1cvN2bMmNI7kSdkm3yCXUC2yR/tWmbobA8bNkxCp4Qe6imEEEKItkRCRwghhBCFRUJHCCGEEIVFQkcIIYQQhUVCRwghhBCFRUJHCCGEEIVFQkcIIYQQhUVCRwghhBCFRUJHCCGEEIVFQkcIIYQQhUVCRwghhBCFRUJHCCGEEIVFQkcIIYQQhUVCRwghhBCFpcuAAQN+Lb3OxP/+7/+WXsUz11xzuXfffbf0Lpkjjjii9KrzmHzyyUuv2oNevXq5MWPGlN6JPCHb5BPsArJN/mjXMjPZZJO5YcOGuR49epQ+6RxGjhzpjj76aNelS5fSJ/+hT58+btSoUaV3jWXQoEFuyJAhpXcTU1VEp5LISQuZUK9rCSGEEEJEqSqigzipFIkZPHiwP8phIqezozqK6Ii8INvkE0V08osiOoroQN0jOkIIIYQQrYCEzgR+/vnn0ishhBBCFAkJHSGEEEIUli4DBw7MPEdnjz32cOedd17pXTzTTDON22KLLUrv4plnnnn8/2+//bb/XzQHxnbHjx9feifyhGyTT7ALyDb5o53LTO/evV3Xrl1L7zqHb775xn3xxReldxPTTNtcdNFFpVeT0rDJyIiYSgImL5OR241mThAT2ZBt8gl2Adkmf7RrmenWrZu7+OKLNRk5BRq6EkIIIURhkdARQgghRGGR0BFCCCFEYWnYIyAYPxw3blzpXTKan9N8NA8kv8g2+URzdPKL5uhojk4lqhY6lUgzGVl0DmpM84tsk08kdPKLhI6ETiU0dCWEEEKIwiKhI4QQQojCIqEjhBBCiMIioSOEEEKIwiKhI4QQQojCIqEjhBBCiMIioSOEEEKIwiKhI4QQQojCIqEjhBBCiMIioSOEEEKIguLc/wNTtPAIRNgEfwAAAABJRU5ErkJggg==;" vertex="1" parent="1">
          <mxGeometry x="150" y="120" width="570" height="336" as="geometry" />
        </mxCell>
        <mxCell id="LjljhjCefLYw6fvzPOS--3" style="edgeStyle=orthogonalEdgeStyle;rounded=0;orthogonalLoop=1;jettySize=auto;html=1;entryX=1.007;entryY=0.449;entryDx=0;entryDy=0;entryPerimeter=0;" edge="1" parent="1" source="LjljhjCefLYw6fvzPOS--1" target="LjljhjCefLYw6fvzPOS--2">
          <mxGeometry relative="1" as="geometry" />
        </mxCell>
        <mxCell id="LjljhjCefLYw6fvzPOS--5" style="edgeStyle=orthogonalEdgeStyle;rounded=0;orthogonalLoop=1;jettySize=auto;html=1;entryX=0;entryY=0.25;entryDx=0;entryDy=0;" edge="1" parent="1" source="LjljhjCefLYw6fvzPOS--4" target="LjljhjCefLYw6fvzPOS--2">
          <mxGeometry relative="1" as="geometry" />
        </mxCell>
        <mxCell id="LjljhjCefLYw6fvzPOS--4" value="Heading Buttons" style="rounded=0;whiteSpace=wrap;html=1;fontSize=22;" vertex="1" parent="1">
          <mxGeometry x="-130" y="260" width="200" height="70" as="geometry" />
        </mxCell>
        <mxCell id="LjljhjCefLYw6fvzPOS--7" style="edgeStyle=orthogonalEdgeStyle;rounded=0;orthogonalLoop=1;jettySize=auto;html=1;" edge="1" parent="1" source="LjljhjCefLYw6fvzPOS--6">
          <mxGeometry relative="1" as="geometry">
            <mxPoint x="530" y="585" as="sourcePoint" />
            <mxPoint x="450" y="382" as="targetPoint" />
          </mxGeometry>
        </mxCell>
        <mxCell id="LjljhjCefLYw6fvzPOS--6" value="DataButtons" style="rounded=0;whiteSpace=wrap;html=1;fontSize=22;" vertex="1" parent="1">
          <mxGeometry x="800" y="456" width="200" height="70" as="geometry" />
        </mxCell>
        <mxCell id="LjljhjCefLYw6fvzPOS--9" value="" style="shape=image;verticalLabelPosition=bottom;labelBackgroundColor=default;verticalAlign=top;aspect=fixed;imageAspect=0;image=data:image/png,iVBORw0KGgoAAAANSUhEUgAAAxwAAAHMCAYAAABfpq4OAAAAAXNSR0IArs4c6QAAAARnQU1BAACxjwv8YQUAAAAJcEhZcwAAHYcAAB2HAY/l8WUAAI4VSURBVHhe7Z0J2CxVeaDr/8GICyLihoiCbLLJpuyyqMBF3EAWRUg06oRkMkkmk8zkyWRMwmSZSTKZzCRkMmZRxxjlchU3REVQFpFFdmSNLCqbC6uIIN5/fOv2d++5dU93V9Xf1X933/d9nu/pruWrc+rUd5bvnFOn5o444oiFIsPc3FyxsJA9NJCtt966uP3223tb9SAsaBqeenmmRa+NrQDhNQ0L1MszLXraS542eujArOphK2BdtDboNdWBWdezbMmjXh7buetSR2/ulFNOaXbVIWy88cbFI4880tsS6Y+2Ik3QXqQu2ApoL1IHyxZpgvbSjvner4iIiIiIyMhxSlUD1MvTVs9h7Dzq5dFe8rTRQwdmVQ9bAeuitUGvqQ7Mup5lSx718tjOXZc6eo5wiIiIiIhIZ+hwiIiIiIhIZ+hwiIiIiIhIZ4z8HY4VK1YUK1eu7G2J9Gd+fl5bkdpoL1IXbAW0F6mDZYs0YRLt5fjjj+/9W8UkvsPRicNx7LHH9rbqMYkJk0O9PG31fFEvj3p5tJc8bfTQgVnV86XxPOg11YFZ17NsyaNenkl7aXz58uVT4XA4pUpERERERDpDh0NERERERDpDh0NERERERDpDh0NERERERDpDh0NERERERDpDh0NERERERDpjnqWsRimQ268oVdFWlCaivSh1JcgdU5SqaCtKE5k0e5m0+PSVZcuWZRfN5WDTdXjhjDPOKI477rjeVj3iI00BYQfV/7ljk7TOcA718rz4xS8uvvOd7/S26kN4TcMC9fJMi572kqeNHjowq3rYCjS1l1lPF/Sa6sCs61m25FEvT1N7ScOI/7l9wP90mzhCuq/K6aefXpxwwgm9rVXU0cvRpd6SffgvIscvDkduOyT25/bBJCVoDvXyvOAFLyjuu+++3lZ9CK9pWKBenmnR017ytNFDB2ZVD1uBpvYy6+mCXlMdmHU9y5Y86uVpai+EEeHwhfLYDol9ENtV4niOafnw35I4HFw7RjWe+tSnFs961rOKHXbYodhss82Kpz3tacUGG2yw+pwNN9yw2GSTTYqNNtqoeMpTnrL6pmT6ufPOO4uXvvSlvS2RwWgvUhdsBbQXqYNlizShjb3gRDzxxBPFj370o+KRRx4pfvrTn5ZtbPbz/9FHHy3uueee4pvf/OZax4HfQe1xHY4+cN0YwcCB2HzzzYvtttuueM1rXlO85CUvKZ75zGeWTkZEfhARvzrnpqiXZ9x6V1xxRbHXXnv1tupDeE3DAvXyTIue9pKnjR46MKt62Ao0tZdZTxf0murArOtZtuRRL08beyEsqIbH/ieffLJ44IEHiptuuqm48MILixtvvHEtpwPJjXoE0+JwjHWVKiIUzgajGAxLHXjggcVJJ51UbL/99uVIRl1nQ0RERERkWqG9S7uXGT44MbyL8YpXvKJ4znOeU7aXo808C+3isY1wcL1IPKZHPf/5zy+OOuqoYtdddy1e+MIXlt7ct771reKOO+4oz33Zy15WbLHFFqUT8thjj5Xz5b73ve+VnmCbeMnk8e1vf7vYcsste1sig9FepC7YCmgvUgfLFmlCU3uh3YtTQZsWR4L/999/fzk169577y3bvDvttFPZCU9n/F133VV87WtfKy666KKy7RvTrmj75tq/TqlKSD00EhtnYu+99y5222230qvDoWAI6V//9V+LH//4x+X7HC9/+ctLZ4PtW2+9tTzG/DYcDpkNfvKTn5TT6kTqoL1IXbAV0F6kDpYt0oSm9kLbFyeDti+vEPD6wM/93M+Vjsstt9xS3HzzzaUzQrt3q622Ko/dfvvtxTXXXFN89atfLZ0O3vGgTY7zUW2bO6WqB5FA8NoYzTjggAOKV7/61cX+++9fOhuMbJDYjGw8/elPL8/Zc889i2c/+9nFD3/4w/IFmuuvv764++6713E24gZFRERERCaBtH1KIxwn5bbbbituuOGG0tFgm+V1d99992LHHXcst+lcpy3MfxwP2skHH3xwsd9++xXbbLPN6vb0tLZ9x/YOB97gMcccU7z97W8vXvva15YOBR4bL8mcd955paOxbNmyMmE33njj8hijGhdffHHxgx/8oBxOgjTBm3pgIiIiIiJdQvs0ba8CjgSvDlx66aXldzzYZuGkww8/vDjyyCPLTvivfOUr5TkcY9rW0UcfXb7n/LrXvW71daaVsYxwkIhMn2J+Go7HQw89VDoRvOl/7bXXFs997nPLcxhyevjhh8u39a+77rpyZOPxxx9f/XZ++uB0NkRERERkEknbqdF2pfOcNu4ll1xSdqo/+OCD5WweZvjQFuYVBJwOZv7wngezgFi99UUvelH5ngfvQE8rYxnhIIEY0eCbG0ACs/QXzgYOBgnNnDXAGbnsssvKoSXOw9moOho6GyIiIiIyyVSdDrYZvfj+979fdqx/4xvfKLdxNGgHI7yzQTv46quvXn2MdjTvNcd36qaRTh2OcBQYuSCx+I8DwXQpnA3ezgcSOD3GSzR4djGykaKzISIiIiLTQNXpAEY6WAiJlaqirRurWfG+Mu8vMwISrxOEQ8LvtDI2h4PRDf6T8LG0Ldt4a0yzimOx9FcV9uX2i4iIiIhMKtGGrbZj2Y52bzgc/FbbxGzTVuZYHJ825on0KAWq+3AqSEQg8dLVpiKBI2Fzy95yLAf7+x0bhHp5xq3XlrZhqZdnWvTaYnquCzqzrNeWccdzKfTaMOt6bTE988y6Xhv6hcXoxhNPPFH+0l6ODvjqMdrKdNzzC2kbu7o9qTKWsRkCCoeDRI/hI+BYzEnj2DgNQERERESka3Lt22gT8xvt4YB96QjHNL+/AfPcyCgFqvsiocIzgziXYzE8hMT+OoROU9TLM269trQNS70806LXFtNzXdCZZb22jDueS6HXhlnXa4vpmWfW9dpAWIPCi+PRHk6J/VVnJKS6PakythGONAEJOCWOVfeLiIiIiMwq0fYNxyIlGuu5Y9PGkjgcKbljOh4iIiIiIrPBdLtLIiIiIiIy0ehwiIiIiIhIZ4zF4Rg0RSp3rN/0K5FxwctZT3va04qNN964eNaznlV+4XMcwlf3Y0U3EWlG5FuWj+Rjs+Rd8lS61OSoIb8SZjUvpy94iojUoV+bmP3T/rrB3BFHHJG9g7jBpqxYsaI49thjy/+84IK8/OUvL/bdd9/i0EMPLQvhW2+9tTjrrLPKr4pvvvnmxc4771zsvffe5bm33XZbceGFFxY//vGPy2vI7MIn+2kITBp8zfN5z3tescMOOxTPfe5zVzdYmkL+adrI+c53vlN+XZQ8ImszqfYik8NLX/rSYquttioefvjh0la233774v777y/rlbvuuqt45JFHemeODsLcbrvtii233HJ1ZwHfkzr33HOLb33rW+W2TDaWLdKEUdrLC1/4wuKggw4qf7/73e8Wl19+eXHttdeW7eOXvexlxeGHH15sscUWxd13312cf/75xXnnnVc8+OCDq5fLheXLlxfHH398+T+ItkfTdnyXemMb4YhIEKkQYH98lyPdL7IU4Gxsu+22xZ577llmdgqBzTbbrNh0003HIs985jPL3lkRqQ+jGVTKO+20U7HNNtuUIxvkJToOXvKSlxS777572bFFB9eoIb8S1rOf/ezV+Zj/lCUiIsNI271pexnStnK6fxoZ2zsc055QMvswwkYDBUcDoeFAQ2bal6ITmXVo8ONo4FwwKslIAxU1vZA4H+xntCPytXlaRCaBQZ3sHBvkjEwbYx3hiISqJnCagIMSX6RLYgrGC17wgrLXUlsUmQ54Z4K8y/THfpCvOYdREN65EBGZBKKtkbaTcww6Ng2MzeHITZuKxA1Jj4mMG94vonf0Gc94Rm/PqrmazAdnLvadd97ZSNro3HfffZ3MMxeZZegsYJQjXXCB9yjIvwF1Szgmu+22W+mAiIgsNWm7l7ZwSrW9HP+nkc4dDhKGl1so/PlP4tGwY0ib/zgiHAe22e9wtywF2B3ORjr3+rHHHivuvffe4qabbhqL4KTwQpiI1Ie8G9OogHrlRz/6UZmXUgeevM37FbynxRQsnQ4RWSrSNi//aSNTdkVbmf20l6Nco60cnffTyNyyZcuyrlLcfFPOOOOM4rjjjuttraoIKNj32muv4sgjjyznxPMmPnLllVeWlQI9Tq9+9avLyuAHP/hB8f3vf7/4xje+Ufb2DiLiFw+jLurlGbde25UeCK9pWDBMjx5SVnrgJfHg29/+dukIXH311b099RllPNlmmhfpFQ57G7h2OPlPPPFE+QzYTsMjH5IWi4Fw6GR4/PHHy1/iTN6PHui66ZLGlbKC66SQDixdXN2/GCKNIn2Ifw6eBVNz0gqhLREmYRFudNCk8PzT0bfFwvWRqi2kcG/YQlohIjxXnPG6xL3w/LEvbCHSjGOsSkgcovMpCL1h6cs0qde//vWrz7vsssvKOgaHgvjjYKQOCdCR8M1vfrO46qqryvvh3uuGl0L9teOOOxZbb7316vKMtPzsZz9brjiXQhyY9rVYm4l4jsNmuCbX5hnxfLgHrltNz0FwDWSQrQVcM+yE37C9NhAGEmFW7Svg2CTVRf1QL8+49drYC2FBGh5tY8omZlbQ7rjnnnuKiy++uLjxxhvL1V2R5z//+eW7pXRGnnPOOcVXv/rVctZFmn9OP/304oQTTuhtrSLCiXDr0qVep8viAoUFiUWinnzyyWXiUbh/73vfKxOQZUApDKgsSHD+43SwhCHH+ZXZpG0h3xU0TMi0VYeDzN/G4RgVNE5o2O6yyy7Fi170onJaSK6yJ79W91XhHBqK5LE77rijzGMsv5dCOPvvv39vqz+DwqNip3eZtKNhR4FKo5AXdus2VLg+5QGFK9PNrr/++nI7hesuW7Zs4Nz9OukScC5xx7nh2ZM+/Oagsthjjz3Kl5K5p6BJeAGVB2HS2XL77beXYVaXBqfTBqnSJjx0kEhfbIEwsYsUVmljOXMarZTl6JBvb7nlluKSSy7p22jsBytJkW4sIxtOIo1ZGv40ztuW99jWUUcdtTodcDiiw4p7xCFg+drqdMkHHnigvBc6FVg+tw3xXkjV4fjMZz6zjsNRtRnSE9o8P9IeG6EurWsz6DUNi+dD2txwww2lE8cz5J6f85znrH6G/Yjw+KXef+ihh1aXO6R9DpzRF7/4xWWbgbKY7WHhBOn98Z+4k68IjzKEpUVzTFpdJJPNYu0FZ5qFLFhKmzI28hLL4V900UXlKCzHyWvkAY7RCf+JT3yiuPnmm8s6HPsOpmVZ3A1+lqn/oPd/LUK5Kdw0N58SmZ7EpbFEYgIFCYUQCUjDgZ5KBOhB4aHi8clsQoVZtyIZBxQCNLbTxisVJI1AGs1LAY0SnAyW6aXBFPmEOJJ/qoJjktufCufQ8IqPk5HPyJ8BBR0NtJxuVQaFxzGcOMLhHmhE0NBif514ItFDix6NHu6dBnLAtVnylOM5/ZC64cV5EXfSmQKUhhzlWApLrNKAJA7EMXedphLpRfnLc0lHEaKhntNrGx4StoD942ylU5C4f54bjiJpz/k8E9Lihz/8YemsNqmYaERyD3RCEWeuhQ3SCKUx22TUJIXr0QiOegvHhbjhbJB3eX6ExT3yC4RLo4H7j/TmnppCg4DwSaMozyjbcGSqTgyNC9KgajNtnx968fzq2kybsEgz8hjh0AgiP2MPda6VnoM9Uf+T7lVbI/6EQxnMN5Cic4X7axLn6rlsR1zDsa+OdExaXSSTzWLtBbvEzumAJ19R7lNO4XBQdvGOGfULeYU8g6NMhxudPFVnA5hVxOyilCgLm9Kl3lhelqAQpOD93Oc+V/Z4sk0BTSFArxkVA8NI9HJRkVGA8wAsAGR9h0YMjgYVMIUThc9i8gWFApU9hRwdADRGaECkPfSjgHxNBR89lfzScGB/XSKu3DOFL/cfvchtC8U6EEcaPjh3fESOtKfgbxL3pnA/NIYJh+dC45nGaZdlYKQvz4XGHY1T0pd4RPpSucUoWFRy2ArxxDFFvw5cj3Ao2+nNi+uH44KzgXPfBcSduoWOLSpuGpw0GIB7pS7i3qdtydyczZBPRm0zpAfPjudNeYGttM3L1OvoUyaQt9K8TJ4LJ56wwglu+zy4LmlB4y7KDtKIsm9anrHMLtgmNk47mDLqmmuuKWdS0D6mjKUsIr9E+5iP/lFWRtk1jXSe66ikSCB+qbiuuOKK8t0NRjbI9CQ6xxjKxxlh2JYE55iFgqzvUPHicNB4H3V+4Ho4GwgF26ivHxU+FTwNlMVCwUwjhUK6bkN3sZAuNI5olEbPeNdwbzx3ngvO1rjAwcLWeF7hgNI4p6FOT3Taq8Y5OJF1nwN2QEMTZ4MGYDQyuT49eoxaVXudRw29h0xLYGpNOlpFXHDuaIziXBK/aSNshjTuwmYiL8eIw2IhPxFf7IjrAvmbjzPilHaRvwkLp5Lr48iILBWRn/ilo4WvizP9MkbvOUZ9zLTkCy64oLjuuuvKKaJpe3oaGcuUqvRaFDQU7lRsOBb0bFERAAUChQGFJseYysI7HjKbLHZYctRQCU3alCrmhtOwiwqSRhnTQyh8mANN/EIonNLtqtBoxNEnzaNBSd6kF5teFPR5JuQ/egMDwqRnhVFKJK43KDwKRMKIQhXh2sSZa1TjnpOYjx73zvRKGsXEFeE4jRSmf6UNiLgXnhvXGZYuqaDL/eJcRLy5F9KOxnE6BYSGKUL6sT+u0SQ8JJ4L6ZU+F8IjPjHXnQYaPdkBZSTPhc6aOumZCnEkTMKJtOM/1yRMrstxID1Id/IFji+Ec8q1eA7Vd2uqEEZME4gGPemKLVx77bXlb3XKWhOoV3JTqoh7pB/hEU+eFw1annE4keixj8Y0v5yHfh2oswi/zpQq0i+1maa2EkLDhOdDXJvYTIwoES8kd+2qQJqXATsh7lxjkO3F/eVsjTQmLqQD/3FGX/GKV6zV+UF80Y8RsGGSpidpkcvLhBk2HkxaXSSTzWLthXyA88voJHmJd7Co07FJylk6PihPyDd0+NBJQl4jXGy4yrRMqerc4eA6ITgUvMBGo47CJRpOeHYUwlQYCL0oJDSFjA7H7DJphTyFwCQ6HDjoUQGTZ4gPeYY48b+u0DDlfshf6T1G44f8RgVddTio9NHnpVTyY/W6VYkXj6NBHmUJBSudC1yDfJ/TTYW48kwolAGHg4YdhTJh0KCoOhwUxjSAmDrDewG56w4SdIknDWzSPOJOmNHASomGF/HJXa+ORMOPCiYa9ITLc6FhGbaXczjQZ+SY+61ed5gQJo0x7CHgmtgC90P4QD7lPBqClNsQ9oi9cH76Xk0VGsU0yum95llGnseWeab03lHe5yrSutRxOID7w26w6XA4ECBe/A+bJU51nI4mDgeMwmbQ5fnxPHI2E72hVZuhYY8+NkMaVa9bFcLhnshfEQ5wHRpCXINyI6cbEnElXVNbC4eD49gC90L5G8+D+HMvlBfkZV6Oz12/n/DceQ7k5bALtrFXjvEMgkmri2SyWay9kJ/odCc/8J/ylHyAvbPN1EXKSspOjkUeo+zIMS0OR+erVHEdEoyHw9K3rHhCoQJkeoa4WeoLj+5Vr3pVWWkAhQErh1x66aXltsweZB4y1KRAg6q6ShUVc9tlcUfBm970pnJpvIBCiUY7UxPr9sCmkB+POeaYcp50QGFG44hr0sh65StfWbzmNa/pHV3lkDAHnoZhvxWbquAoIUyBisYp1/nUpz5VpmkdiOuBBx5Y7LfffuU28aOcwNmiV5yGOD3mRx99dPnsgDKL3iKmZ1K2tIGK4M1vfnPZ8CEONFq5JtM9sYWueNvb3lY2EAMa4zwXVlzivkiLdPUwGms8F+b+tnGIubdDDjmkLHcDKjzSl2vSwAtw7Hbddddin332Kctynmk4J8SPtCadctAQx4Hde++9y06ngPsjPZlOsFiwtdwqVTRqSaMc2BJCXqAHH92o80hP0oF8T56ggdEP6izC5x6jPCNtcqtUjZq3v/3tazkUxBtHgDQlzlWb4XnddtttZf4h/evAqANlEHk5wIFgxZzURgZB2r72ta8tF78IuAZlGbZGuUaPL+UdDS6eA/FfTL4jTOLNCpjROOS5cP/Ya/psJq0ukslmsfZCfXXQQQeVnXuMqmLr5FnqWMpgPiFBvuYYnSMXXnhh8bWvfa18HYFzyR9RVsHyKVmlalVLoGOICL0jhx9+eNkbSWVFQUXhR2JSwNCooODnXAofGlODCnmR9ZWmBUFKP90oLEYF4eTCahL3xdznLBDPZNTPJmiSvpTH9NanvWw00umhowc5RqFy0HNNY5JyPgVHlx7ypYJpCtHwjNGcgHvCGWEaWNorvz7Sz05GkZeH2TZ6TcJJiY7OKou5psgowP5iuiDtYEb/WC6b8oY8wTE65HE+mI1A+/iAAw5Y3TEyrXTucJA4fHyJXrQY2iQRcSboZaH3AkeDXjCO0WvHMfazDJiIrGEUFaWV7eigQUMvFaO2++67b9mj3FYYRZhUKJOpABmdYtQAKK+5f8p10iAHHU04HEw5ih7BmIZFxxLXXCqYxsOIAHUN90W9FBBXnKj4+NYov0ie2gwjRjQkcvZQR2Jkr2uWoszAvngGjCDl7n2Y0IOM0xgjrMB9YL806ESWCjo4WHmK6YJ04OB40CFDWUpb+Lzzzltd1jLbB4eEqdWMEKZTG6eNsYxwkJAMDcXLbSQuU6WYLkChT2LGMQp9vvxKYld7nUREJgUae0y/olHDyG0qMaWsiYxi9Z8uoWxmiku8jBvgUDC1jUY6jcQUpidSiZJW0fCjgmV0A4djqct4Rm6YYkNdFEvmRuOaegtHiQ4xRmi4z7Tx2oaqzfDc29hL2Nm4HI6lAFtidImpJbk0yEmalvxnwY2wSZ4rdosd85xFlgo6cOhcZ0oh0wVxgClbKEOZyksbmQ55RmApL7HhaEfTYVEtZ6eFTh0OEgWJhOQ/mZ5KhjnWDNFzLJ0/yzFeEONhiIhMIpRbNGYY6mYYnPnt8eIwvbJtJEYAJhXKZt6LYFSCjqKAkRkcCxqH0XEUkEakSwq9dkxjWsrRjRTqHd57iJGOtPebeglnil52JF5obkNqM7wXgc1Ej2bOHurIpNvMYiDtaWThVOXufZiglz4vGnm8j8O7K+kL4yJLBVNU6ejANimHsPlwKHhfkrZwdO6wzylVAyBhIpEoOPhPwqYJmDojcYyEFxGZVHhBmJ5vGozTXgk0gcY4FWHaYOPe6Xmj1z5GaSjXmXvMB9do/AU4G/TeUclOUqcSdQ4NUTrCGPFgylfA/eEUMLUK57LqQNUFm2GkBJuJOk/GA20LOjjpMebXKVUyKVD2RLuXMiEcjigf4lh0zvOLTGP5MZYpValTEYkbcIwEBo5RMIiITDL0etOYpgeVMgwou+j5ZySgjUxDI4h7ZN4xjTaG+imzAeeCFbZYhYr0YJosU2EY9Uh7mZnCxHQqnI5Ju1/ixr0xxQGHKHU66DDD6WC5Sj4EybNvCnOweRdklDaT1qWzCPfHqETu3ocJ06ZwanGOea6MqjGFheccdiuy1KRt4mgPhzNB+RAOB/umfoSDyI9SILc/LWCRYNCxYfAQ2hQc6uUZt15b2oZVRy/upSptGIVeGodh1xt2PKV63arusOOQ25dS1U+lLlWdqm56PKRKbt8wBl0PaHzSuI5zaHxHY5ppR7yM3FTo/U/DTQVy+5E25K4TMgjK53j/ggY52+jQIKfnntEMXmpkpIMe/Rjx4BzOjRfP6zaU68QpiHNTnbq6AQ1VplfhdLCCFo3dqPCp7HEaGKXg3nCyou5Kww2pMkqb4XwEZyUNMyTIHQtpShv99LyqfkhKuh97wWnAZnJpkJNqOvIMWRaZJUdZUpS0HqWjW41/XdTLMy16bSCsXHjso4yJtm+UKRDHQo9jtJkhbV9XtydV5iMRRiVQ3UdA1Rdd4twyEr1ERGJ/HUKnKerlGbdeW9qGVUcv7qUqbRiFXhqHYdcbdjylet2q7rDjkNuXUtVPpS5VnapuejykSm7fMAZdD2hgxzRRhJ5UpuKcf/755QojbYRe/7heVSC3H2lD7johg4hzmHvMFCQqSbYpw2mQM6rB6A/vdfAf5yOuSQObxiNTsuo6HBFeHeLcVKeubhC6LJnLOx3MocbpiP0IoxtMr+K7JPFdkfR4SBVGNnI2c8EFF2TtoY70s5kgdyykKW300/Oq+iEp6X7aAji2rFaZu/dh8uUvf7n8fsHXv/71coQDZ3LUVONfF/XyTIteGwhrUHhxPHUqgtgfs4Eg2tfRZk63J1XWuFIdEgkZEHBKHKvuF1lqqhl/qanmpTZM2j1NGnXSp1op0GtKbzUNpLYyTfPK42VHRmWiZw6HgylDjABsscUW5QgA+4CyHR0kfeF8UiGO9JAz5x8HadCSuYxc1KGad1ObIV2q9lBH6jpu08pi8xVT/3DKhn28UWQpibZvtYyAtF1cPTZtLInDkTIsgUXGCbaX2h89ksxDZypFU6Hxlds/SGjIpHPeq/GhAcfqK/SyVnWHhUfPM/Ps0+sDFfEsNVx4ZvSwx303eQ40lFlxCYcihTRKGyz8rz4Xpg/lnktdicb5NMB0KqanMD8epwMox8krpCGjG9wP+0gnGo6MiNT9MvUkwAgE03FYMpe4p0vmkod41iwcwDc1eGdlGE3y8jDBppFpsplhkDbVfEW64tDl0iAng/I61/FlfZl0cvZJnmD/tNvuBttuu+0f9P6vRdsb4/Pqy5cvL/9HArGqBxUQywBSkdPrwMtbDLHTMKDApZLiXIbcGc6e9Z4bWdVoS4cIlxoqI3os07nZ7KNxQcMgKvkmQkWX299PaCzTOIsVfGjQsP5/pBO/TFNBmDNf1R8UHg2jWIqTcAJ6b+nNpQFJvuM85qgHxId8yfG0p3cQ5PlYJjbKEq7D3Pi61wC+WUDZATT6iDvlB3O1SSPKD9bbj/shLOyKbZw37rvJM8AhY+lSrhvlF4U9946QDsCKTDSu47nQ8KNxxHOhPMtde5iglzZcuT96aRlJIA7ELdICaOgTn0iLNvCcKXsDeoIjfYd9q4A8Qt4gHbhvID3IP/HyOBB3Rgz4vhJTW9IG5ajA1li2NmyNufv0jGPP8czawugDNhX3Gs+csLhPbIVj2FyET7g4KqRlQPyqNoMe6dXWZhCuEXRhM4RBvktHcrATVvRq8j0LRr7o9AjC1ih7mO5EfuWccAoQ7g0hnav33U/65XdslHAIt2qDk1YXyWQzSnuhbUE9xy/5ibxLnqB9TJ6jDUAZQ36lbcw0zHh3KzjuuOOKM844o7e1iiiLmtKl3lhGOESmAQoRKuO0EqXyi0zP6jRdC40/GiUBjfO0gU4jhZ50Cqic/iChcYkzEY1DoNCKF1dnxcknfWh0xH03eXY0zqojHNgFjbh0KVimaZBuAc+FSoEGU1tboeE5TdB4YwQgXh4PorEYcF6s+pSeN00Qf6ZX8eHDakOdZ191NrhnHOwU8nGqGzZDvszZQx1J8/K0Ew4Iv0B6kq44O6Mof8nbNOp0LESWBh0OkR40EOIbA9H4puFJpUdFNQ6hAYGTE8SqK/R24BxQCXOcRnVOf5hw/ahwuR4NZ3pwqeintTFYhfThPnP3P0xIV3pUo/FI44dpQKRR2ljkmbB/VM8FoQE6TXDvpAG2kzpfKeHQ8vI1v2xPI8SdUZPckrmUEemzo/eRfFt9VyWmlI3SZtKyYtqhowc7SR1T0pZRv9y9N5V4pyjytoiMl7E4HIMqmdwxCwRZCnA4WKudhgW9kfFC7FI2knCA6FVl5IVeUxyhxcaHe6LRQwXPEC1h8H8p73OSIB1II54/jWmWSaWhyHZAuiHYCU7JKJ7LtMH9kmdwvhgBysFx0oiRkHTkcBoh/+FwYA84HTgU4TyEzWAL5FWmDKdOCbAcMLI+28wgcOiZphXTvUjbpS5/RcZNzt5pE0c5M82MzeGIHmMSLgRyx0SWAmyRRhFTJy677LLS8aDiC/tcCmjk0rBliUcabTRmaMS1LXiowGkoMYXq6quvLq699tryPmUVpCvpy3Nnruw111xT2kO18UjjE+eUZTfplaURid76CO9lYE/YVhVG0HDWyFe549MIdsH7KOQdHFLyU9gMNkG+Iq9iIyk5m1nKsmXSIC1IQ76XQRrieJBms2I3Iv1I28NVJ7t6bJqZO+KII7ItF26yTaNmxYoVxbHHHlv+ZzgU4WW5ffbZp3jta19bDgFT6H72s58tCxfmWvPS53777VdO9aA3l7Xsq8PRMnvQgzWJUwKwQ4bgsU3mWDOlalzzfukppvHGFJ4gpmzwwiXvkzA1oG18yNM4MUwRIQwcmLTnHgiHOc8Bz4lzaQBUG9794D0IXoTlNwpMrpNrvA+Cede86A70DvPyZ8SFeyCuRx99dPm8AtKQc2gMtoGGT4xucC0azTliugd2Ei9Oj9JOaJDSWKc3HXiZPX2Zn15y7pMRhrajB7wLxIvFAeVuXLPaYO4Htsk3Kfbff/8yPdI0YESAZ04DvEuwM+qRsDUa9NQv2Hv67s2o4D7Ji7ysznPHFlKb4dnlqNpMpFfEe7GEzTB9i3uv2gzPl/hF/qkD90heZvGKgOvwfYy6NgLEg/gE6IatpfU9dQJpQ5jka7ZJt8VCPqYMofypOnqTWhfJZDJKe6EOO/jgg0t7J1/S2XndddeVZTrvLv2sjV6eQ8cgHY9f+cpXSlvGhqONvnz58nLBppTUUWlCl3pjcTi22267Yu+99y4OO+ywsvGGw/GZz3ymrBBoQITDwQPE4SBBdThmHwt5aULOXqoOB2UWZQhTM2joSvfwTHbZZZdi3333Xe0M0xPH84rKk7J+nBA2WL5IHayLpAmjtBfqsEMPPbR07HG+L7300tKZD4fjyCOPLDsomPrMBy35UOi0OhydTqmKgPmNxCFS0VvBdhyD9FgK++NmRERkcmAUkCVN+Y3RDaYY0ZNOj/+4nQ0RkUkk146ttonTKVX9jsXxaaNzh4MEwqFI5zeTgOFExPGAYzmnA3IPS0RElg6mZDFSncL0oljsQERkfWdQuzaENjNt5XAo0vZwHJtmp6NThyPAoWAIigQi8Zifefjhh5dTregRiwTmGB/4YS4wcz2jtyxNWJ0OEZGlh7KYJYRxNtKPwlHW834AL5P3e5dBRGR9IZyJaMuyzZQsPjS82267rdXWxaHg1YNXvepV5asIHON89kc7elqZ50ZGKVDdx3wzVvaIyocX/EjoV7ziFeWLMrzkFsPu8ZE1vuRbdTrShwXpviaol2fcem1pG5Z6eaZFLwfXqkqV3L46zLIeOovVo8LkRWLKbL4lEcd4GZjpVCx+EO/ipXpNaKvXlnHHcyn02jDrem0xPfPMul4T0vYqsM1CE3wklnYuI8S8g0jHO21kFjVgPwtxsNACU1VxNBgtZtGDWOQl2tdx/XR7UmWeRBilQLqNV4bDwbrkvMjJEp84FyQiq1fttNNO5Uod7OctfF6U4Vg4HbxQw8MhsnHtIG6iKerlGbdeW9qGpV6eadHLwbWqUiW3rw6zrIfOYvV4QZwymvKa0ek4RqVJxZhOo031mtBWry3jjudS6LVh1vXaYnrmmXW9usT1o93KNuUlqy+y0Aad6owSs5IebWBeGufL+nvssUfpiDDSQecN7We+/8M0VRyOtI0d167um0QZy5QqnA56uv7pn/6p+MAHPlCuQoW3RsJTYTF0xMpV55xzTnH55ZeXFRY9ZizNueeee5Zv7/NQAiIOXRuLiIisCw4G5TcVJo4HUC5TGVK2M50qfTdPRGR9gvZpNLQDOs9xNnbffffVDgVOxrnnnlt88YtfLDvcaQ8zssExOuHPPPPM4u/+7u+KT37yk2u93zGNdO5wRILH/DOmVrGsF4lIYjKUFN/pYHj+hhtuKB0PhuNxOhh2wtvjIbHee8o0J7yIyLSCs0FHENOpqBgDpgPE6lSU+SIi6yNp+5QOGjrN41UCOmpoz95yyy1le5glb3mnmQ72aOuynDifj2BpcdrDdOBEW3pa275jGeEgcSKh+FgVHze54ooriosuuqicZkWFxQeoeHkGB4PeMb42yseimCfMA9h5553L0ZB0epWISJQvIdI9DPu/6EUvWt0JRLrT+8ZHCqkcRURklbPBsuE4GjgcvLdM5ztf07/22mvLVwxwNHhng+9tcOySSy4pLr744tXfMGLfNDsaQacf/qvCNREeAIIj8cpXvrL86B/DSyQoL5Az/5eweUhbbLFF+Yt3R+8ZXyalYrP3bPphtAsHU6QOOXuhs4Ke9nT0k2FpVkniV7qBaVSMTvP+XXQAUWYznYqXxtP3N5YCbAUsX6QO1kXShCb2QluX8pIZPJSZOA+MADOqwasGHKPDnePUW7xewBQrRj9oD1OuIoMcjmn58N9YHQ7guiGsQMWSigwlvfGNbyydCyowGg88pGFE/OJG66JennHrMcq111579bbqQ3hNwwL18kyLnvaSp40eOjCretgKNLWXWU8X9JrqwKzrWbbkUS9PG3shLEjDYx+OBB00dJAx4+fzn/98+YI429GxPsjZgGlxOMYypSolEphfRi14YeZrX/taccYZZ5TDSHh0vHgY89VCRERERESmlbRdi6PBqAbvM3/hC18oXwxnqhX7aCeHzApjH+FIYRSDcPjlg39MjWBuMO9pMPoRx5k2wT6Gnninozr6EZ5VXeK+1FubcevxLk/1C8V1ILymYYF6eaZFT3vJ00YPHZhVPWwFmtrLrKcLek11YNb1LFvyqJenrr1wfQSngY50HAmmUTGtCmI/01C5JgtuxDfpOJbGj//9cEpVDSKC/Fb/I+FYxG+cU90/SQmaQ708vCDFCFdTCK9pWKBenmnR017ytNFDB2ZVD1uBpvYy6+mCXlMdmHU9y5Y86uWpay9cOyQIRyIkRjDSfbENxBFiO8fMOxxx8SpMjTruuON6W/XgWtXw0uvH8ZR0X9OEkf6Qpl0YWg4WDeDFqSYQRps4QhO9uKfFMI54rk+0sZfFMO7nl9Orc5024aEDoRfbw6jq1WXcetgKjNNepgHSs2lawrj04tyuw+O8lLZly7jSRbqh7XNoYi/V67Md+9L/QXU7bLW6P6WpwxHHcsSxcITqUieeAx2OlHSUIZUqH/nIR4p3vOMdva16xHUGRTSHenmmRY+1qFkCeRBcs9oDUP1fF+I5SCfuA1J7r46w1WVYeP1QL08de8kxLfcH0fsF/IbEdo424aETevEfSY/FdkrsaxMejEsPW4Gm9jIt97cYvaY60JVeP3tHr2mDBwaFx7H4DYltVsmc5bJFvTxt9drWRYRVbc9E+P3iQRyh33HIORzRbgGuEdeJ/7FdJfYz9asJoTconn0dDt6hAC7CylEMIR188MHFNttsU2yyySblSlK5CDOvLebP1iUi2C8B+qFenmnRu+mmm8p1qQdB5uTbLSy3yctUrA6BfUVFlVZYwyB+uXPZnwofnMSOX/Oa15TL1fF+UT97HwRhNdUB9fLUsZcc05Qu2DMFPfZ++eWXl+u0812LOMYvkkJY1X2D4Hwqo4gjH/HjmxrYOxUp25T/uXuIcJre37j1sBVoai/Tcn+L0WuqA13psTgM89eZu87iMazSw9L36PWz90EQVvV89qXCMvtbbbVVcdBBBxWbb755Wd6zFOmsly3qrUtbvTZ1EWFh76w+xeJIfIfu1ltvLct6jg0q36G6PyV1ODgfiTKej7OyEuyBBx5YvieNvUf7PkeE80u/9Evlb13qxHMdhyMiSoT4MiKfWOcz7IceemjZ8OI4DcB+F+VmeDGmCXGtiHBdUj0qybqMIrwmTJMe3zoZV3h81IaP3QwjbJGXqxjGZDUH1qimIca+uhUT8aueE5mSXxxrMibfhqEyYpECzsfe24Bu0zSBOno5e+8yvBzj1rvqqquKPfbYo7dVn0HhYe/9WIp0ibKXhTKwbT5++qUvfams4Fi7Pf0AFAKEFf+HEfaOA4298zHVfffdt/wWEnmMaxNGv+ulYTZhsXrUPU3AVqCpvSzV/Y1L7+GHH26sA4TXhR7Hwt4pZ7HzL3/5y8UNN9xQ5s2cvQ+C66XnVe2dDwgfcMAB5ZKm2DsNQMKgLtpll116WvXpKl36tWe6Cq8f0643qHyHtuHVbbukRFgsfIQ9Yu9chy+N8xsvk3NeCET8YjsHDscJJ5xQnhth0H7B3mnL8NFB8hirYiGDrhXHupipNLds2bLyaESUDIrTwGpR++yzT5kx+cAJkbzjjjuKb3zjG8U111xTJgyZNQIBAjr11FOL973vfb099agT0Rzq5ZkWPSqA6rBd9VpkTD6Ig9NLjwIeOsewQRoV/NJbEJkoJAfXjmP8j8qIwp2eLhwNhPmZXI9eL+wdCccm4gf9wgnS8JqgXp6cvdRhku+Pc4Hz+Y+98yVa7B1nANunrL3yyivLEb7rr7++tPdqI2xYeFw77J3GOyN3NMZf9apXlaN5hIETz/VZAx57jzgF6faw8KqMWw9bgS6mBeSYJr2mOjAqvWq8aQQxurbbbruV9o5tMuLx9a9/vRzdw/GIEY9U+hHh8Rv2zogGMzMIY++99y7zFGHQu0wYfMSN87CViB8MCieI8JqiXp5p0atbF3F9IAz+4whQ9uIAbL/99mVbG6fosssuK22RMpiOJc5H0jbHoHiefvrpxYknnliei31zbcKgfCdPMQjAtWkv8WFtynfIXTv2kfeaUCee5QgHJ5I5kbe+9a2l57bZZpuVFR83TAXH8D4Zk6HPcDSQuHj8tnE4ZP1kkMNRNV56wZjuseOOO5aNMZwEKg0qI0Y6LrzwwnKIEntFcoS98hv2TibFkcHBRnA07rnnnrIAuPPOO4sHH3xw9fVy9i7jo63DMcn0s3ccD+aV00NFecwXalkuMeydUQ+mF2Kb6Ayyx7B3enRPOumksvGFrVPGU/FQAdHA45fKb1D5Pi20dTikW3L2zv+0IUZ5jL0/9NBDpb2zGtDZZ59dNoAGle8Q18XesXEWsOG6dFRh70xnoR2DA4+90xAjDjGCPq32LuOlqcNRtXf0sUvaMttuu21p7zga2Dvvhnz6058u2x+UxUE/m8TWcTh+53d+p3jTm95UtpOwfRwPynM6Tumswt6Jc8QBBtl7Fw7HBj+72T8gwnhBVGw/c0DKDE8Dj+FXepHPOeecMpNS4XExzkegenGmXjEkKjIMGlU08PuBAYedUclQAfGBHGwxvsvC/ETm49JDi3OAQ9zP4CNDcE0qH+z9yCOPLEfwOMb1cTSwX0bzqJy4VhqPQZlJumWYvUw72FjYKPaOPVP5UFHQE4bNU4lgrzSUKJ+ppGCQXXJdRjFozB111FFlhcT1mTt88cUXl456WhlxPsL/abV3bAVm2V6mndTeaVhhj0yZvfvuu8sOJeydhhMNMxpO2Dt5YpBNRlnNqMmee+5Ztmewfa5P3XD++eeX74qQr9Je3ihbptXeZby0qYtSe6e9gj1S7tKhz3vROCE4xtgubRHa29j8MJvkujjW5I3DDz+8rCOIGx1T5513XjlYQCcqYUb+4HdY+U68mhD3NojVr7HTw0DjDU8faGx94hOfKHsWiHg1ssN6GkQWAxkhbCzsDrBLPH9WQ6OxRMbCOaZyqjvPm+th52RMhvQJi8z60Y9+tDj33HPLXobo5dXeZRxgg9gcv2F3/KfSYerHBz7wgXJEI+wdZ5tGGecOg3PCWaGc57osvPDBD36wHBmk4sO2CTPyWcRFpAv62TsNLKawvv/97y+n93EO9o7DTS8w59axefIHjTjsHdumYfd3f/d3xaWXXrr6Jd3U3tlGRLoA28rZO44Fnfp/8zd/U5bz2Co2S9mOzcMge0+P0f7BESIcrnXaaaeV1yYMwiJMzk/jMm5+FodVmY6bJJOSublpXmipNrCIIPuWKrKy/hGZo2qLQOMLRxiwXxpVYc/9Mmkcy9l71aa1dxk3YW/8Vm0Oe0cAR5keMWy5jr1zPhUY21wjnT4SEGaIyDioa+90ECHYckgO7BvhXOoDzgt7T4myXXuXcZLaXNXeacuEvVO2Y8NRfufsPfbHOVEfcI1oFwWTYu+rRziINJUSESZCRLqaIGxX94mMg5ztpXaKZ4/91gVHIyow7V0mjZzd0TCLCgl7x2muC/Ye5TvX1t5lksjZHTaKzQO23qR8j/ogyve4Tor2LktBP7vDRhFsFtttUr5DnD/J9r7a4eAmqZT4hUmInMggsE8yF+AwY7910d5l2khtFNttY++grcs0gI2m5TtSl6q9x3VEJhVsNC3fm9g7xPmTXL6vdUdk0rQBJjLLaOuyvpCW7SKzTs7eLedllkltfiocjq7BA+PFFt7CZ+UJVhdqI6yrzZCpyKTBiijY6BZbbNFoCkA/KED4Rgj5hXzTdJh1fSO+Ikx61V1EoArLgXMNvsfCvFhpT6wi10bC5nmBssloTldU8+Kk1EG8q0CcEFZ1ktkGO2Q6MOUUZVQu7wwTVqpjEYmA/+zHhng5vw3Vuo+VIOOa8RJ/bLctm2W62WC77bb7AwyYQj0KLYyDZeh4051VI5rQb1lcwqDy3mmnncqPq7FEI99U4GM/TYX5aawq5Brr0w0VdsxJbwMFG/aK7bLqDiuRsGQu3n3Ow8cGQ2gIUejyJX0KR+wJe2cVrMXw+te/vvxYJhUByzuyytBioKHFUqZ8pI1GDvfI90fWR+rYCx/2Ovjgg8svxrMQAM+gKYcddlj5wSQqR1bowzYmAb7Lgc1i77FcLss3Q78erbB3GqLkF+ydjh9WpsLeqy/Tjpr999+/ePWrX50tx4cJ69MTZ545+YjnWZdwBhZTvlThmpOYF3mmLO9NmlF381xnAZZ/5vnjULFcLunN76DeW2wbe6fxS16hfuB8Vh4kXXJz22GxddE4ob7i/vbdd9+yHcW3eviUQTX/DBLShfbY7bffXl6Tr68feOCBZblJXqM+bUq17mNZ4v3226+8JmUo5RftQ7Z5DpRh00oX9sLH+niuPF9W4owlosPeq3YfZTs2f+yxx5b5gzSmTKfeWmw50OmyuNxMOocsbmZUkIh8uZzCmg9P0VNE4iJ46khsDxO8Y3t6JbXPsN+6dGXv9Opgo6ynTS/UYqEwSa+p3Q+GXrQoJ2iYtwFnFH3KJBo7k0Jqo6nt1iHNH6Oy9TrE82haxiM06ml0Um/QeFlqyIs4bsSNvEidNgngZESapb3W005qo9hvW3ufNWiw4yDgZNC4f+ELX7j6+feTat7DfhkNDsincU7bEY6op7gOdR/Xj21WyKPdFuE7wpEnbL6pvUOcP66yvQ3rOBzQRYWER4ijQa8DxscICuthtxE+etWvp0LWL9pm0Or5o7J3Clp6jhAaKKOgi2vOKjhkpBNp1tY5iw/qUdY06VUfB6mdNmlQ5ex91GV8DhrlOG08E0akq2X5IKGcR5debnru+L+U9k/60VOLbfBbXXpyqWAUNMqISXGCRkFqo1X7HUZ6/rhsfVzgiNOWwrmklz2Xd4YJ9puOvkc+XUy5yfceotykl51rRd6n/RdlM/vsOFuX1Eab2juk50+qvZdfGidy9JKEIePhMrWEIR2MssnQUb8pVRgaQ3Z4vTgbX/nKV8oP/Nxyyy3lp9cRhoDqCMNN8QVGKiCMF+Mm08RvTjgvXbkC2MYByp2fChkmwmI7Fw7HEM6L67OfDFY9Nyehz/NAP40j++tch/OIaxgc14jnOyhtUuEauXSK8Pkf+3Nw/3Eucel3LsfaDEvG/dAIQbBXhh4ZHkb6hRdpwi+93/QMMW2DuNK4wd6ZIrEYZ5ZhbnqLaKhee+21ZT5q8vzDzsLWuE+mIHKPNNhuvvnmsqFT1eOZEG/ujWvwrEPSc1PJ2QpE2KE77BqcT+N3sTZGPLgWx3Nhc378T/ehF41vpmliE8AQM19YreqEEAcEfeIQ8eDZocd0pZiS1eQZ5q65GEgT0papMzS+Ka8oA4kf9zgonHi2jNqEvRM/yk/snYZBl503u+yySxlnwrjmmmvKrzznyvSqUB9QTxBn0h7bJ2/zbHjWqY2T7lW7wy4Q7pVzwz6G6YWEXqRfpC/xuOuuu8q0Z9pJNS79rofkrsn/JvktJK7Ff+pt7J5r0eCjTs2dz3Hi2zQ8wkFnkJ2NEp4bNh4zIWg7kN4IaT8oDhFPettjhIz7poGNvVPfhC2kcI+jniLTFbvvvns5ysF90YYiT1Ev5PJRSLV9xTZlCPUe7LrrrmV6kTYcI61TSNeqnYdNhV2QNykv0b333nvLqV6MZnDNm266qSzDmKbKuYRNPLguNlbXFqvl/VIxSnvhWtg7U6oYDWKbso6ynXSEfjZPWiBMqUKHOoKyFqePKWukU9u06mJK1dwRRxyxwEOnQsLo3vKWt5Tz+3A08FgxihtuuKEsXOsk8Kmnnlq8733v622tgSG0X/7lXy6H8phP+S//8i9lovRLyEFQSdLoingzj5GChUZkPIAqhIMOc9sic5LZyBQ/S4OhiUVaoIvBcw+56Ro8WK5JoXjZZZeVOjhZFBAwLAzSlwotCgcMDngexJNKZRjcI4Urlc43v/nN0mjoCTn66KPXGkLNEc8il07M+8SZpPDHFviCJQUL8U3hmdBI4BP7NLyJy1e/+tWyAReFW8C1qvrDIGNSCcU8asKgIOOr41/60pfKePEccnZF+rOfOJKxaQwdc8wxZXyJG3GlYLzxxhvL+2+TUX/913+9HOamQffP//zP5TNj6LsOPH/yHWlOuhAvCiEqTwpingtz76sNRPaTp84+++zy/mhUcm/YaFQKOdAjnjxnbIV7Jm2wF8qC6HxgX788RRrx3sxFF11Uy8YAvZyNYQ+EzfsTPGOeaxou5RDvgKVQhlDQRicHz5M8RxjkP67L/1z8Scc0v1EJwgknnFBWjDifn/vc58qyhfSoA88QJzOuudh5yjxDRoUpQ7AHylHShS/i02lz3XXX9bX3gOfHNShDqJii0wd7J00pK3gWXUBa8l4N6UKcyad1wY6XLVtW5nEaMp/+9KfLCpi8wPMhTUgPGiLV58t9AXmPPPXZz362tAWe5W677Vama04v0hHbQC/KUcInL5100kll+U/afeITnyjtmHhiH+SV3DUDziXdI79RjvJsou7lOoPyW0rkH2wBu6CMAGyPuFXBzrHH8847r8xjpAFpSHiENSg84kydRjmeu/Yo4VlT3xE/yugow77whS+UZQxlc7X8S4l7oeFFHfHmN7+5dFjD3ukEIu0pL1Pa1EVLBXmYdyPI95R7pEvTuirK4HiH6+1vf3vZsUU+pR6hbAlIT+yLugwbpfzARtHHpuhIoH4nb1Ank9af+tSnite97nVl24xrfvKTnyynIx5yyCFlXM8///yyvua6hBvlfYTXDxxqyvs0fkvBqOyFvEg+xFYpB7B30uess84qv4pPPRLPtl8ZT5v09NNPL8tH3jHj2fAMSKurr766bKfxvylRhtYlntugumj1S+MYD41T/pOYMYRNgR49apwzjH4jHFQSGBZGRcFPYlIAhPMQxl9HosDhWrykRKVCLxoZgfhSiFaFB8l98J9fHgANChqHNHA4XtVJBR2uTaaJ+Y+5c/gl3bhfGjxkUOLH/mFhhHAe90iFQmalQqHxFxXSMIm4RiOadKIRRrxz54dE/NPtSCful0KcSoD7IxNQyJDpsJkwNjIQ8aTCIA4cv/7668uKkHtJadNLwPPipWB+CYt40MNDZUjji3TD4CNOVQF+6Y2h8RK9CzTIsHvizLOjER0ZPfTqwHxzrsH1iQ8OQ93nFsLzp9CIwogCBdjHs6yez/PgnikgCIuGJXroE5fq+VXhHJ4xjXfCijxFmgzKU2Ev2BmVQB0bQ1I7S22MvEVe5B5inm+aZ4gfPXuxjfBsaBjiKAKVIrYBPEfOIYxheQ+7oQHILy86U57Q0KFxSFmIw53Ty0mEh23TsKlTbkLOzmgg89I18aFCIj9deOGFpb1zz1EWAvr9hPzH/XFPxI2GAXZDAw+74vnVIa5XF2yRuJOXaLwjuTI9J9gez5t8SQUajin7aKBTHmHj3E/1+WIr6GFL5HEaqsQj1ePeUx0kbDOuF3kZG+UeDjrooLIMBMo1roVzTyO53zWrEvmNa5L25Dfsdlh+S4VnR7ywCfJNPBPuNXc+eYE0pB6nHsaeSQ/iOyw8bAa7w0awoyY0sRWg3KExTQOUtCDO2DuNahyFsPeww5wAdkL6sk0aUZ5QdnJNrhGdeUGbuggivKYsRo9OF2wFe6RBSjmQyz+pVNtXbKdlB/mCNKceic4X6gJsmvCoz6nLKDdIxyjbcMRpp2DPlFO0VbBp6iLKTdKda8YIB/mEeHN9ym1skfxMngo7rOblVLh/9CiXU8b9HNrYC2FVwyPdqfOiM4kORewdYUSOZ5Tqxf+q4IR+8IMfLNMaJ456mDIi6owYqa9DXJPnm4ZRV9JrVGWeCGIAJB6FCT0g9AZdcMEF5c3ykAf12jQhAq1CHJCmUKGEsxEFKg3sfsL98FCpxMlcVC7EB+Mhk5AJc3oIx8k8UdnkziF8rsV5VLRkVvTYR+YlU+b0Qkh/zuV+yKwYTsSLTJbTqQqVEBmbe6RQokIBwkd41jk9BAcJiXSKIW3Sif0Ublyfa1LR8kt80+fHvRM2OhRsZCCMHaMfBaQHz5r44SDTS3LGGWeUIxvEjbhHfPoJaUCa8jzoOaMX+5JLLimvTbyx9xR06hI2HnYe6c61wwHsJ8SHsHn22E7YYxQ65FFGJKp6CLbHeTwXhEKbNM+dG0J6UShxfjR2CJ/GCNuk8yC7wyb45Zz0XgfZGNLPxmg4kW8oLEmv6r2SP9JthHOqjaBI+zg/4lmVan6jcCZcJPIs12I7nuGwPMxxGmhcL55jxGcYOTsj3HCE6WXG3hkdZioFz7eJvfOcKNs///nPl/mFZ026E9+6xDXrwr2HkKbcS10hfqR56EfYNFpwJCh/KGNyeYJnmz5/7h8nnLKJtESvqhPnIpEXCQsHlrwBYeMRr6b5jfvK5beow+qW88SR++N8ypVg0H1xHvmd8Gg4EvawOhMJ3TYN8ia2AtgIceQZ0TN7zjnnFB/72MfKRnDT8p2GMD3r2DvOIbZO3djE3odBeG1YjB73xy82iA3hCNBoHyTkl/glH1DWVdMBewauiz1jozgbLNjASAX5ANvHmactQKOYcoQ6nvhE3uAZRp6NawZsR97JlffYWs4GQ3LlPYz7ObSBsKrhhb1TltEZ88UvfrFYsWJF6RCTl+NZD5LIE+igyzW4Ftfk2k3tvXr9UUo5pYpAwjiIIMM79Fbyy0lk9s985jOrGxaDqDOlioLgH//xH0tDXQw0bt/1rneVDXO8MRKbgpGHlOM1r3lN2cCh0GGEheFVrnH88ceXOnjh3GcVKgLSA2+c85guxdQACrWAtOO8N7zhDWWlRoXFkDv/6bHBKOiVpGHbDwqD8HZpXHBuTJng2sR7GMSRTIxjxP1deeWVZTq/5z3vKQsnevU/+tGPrhX3KqQTcSE84sB1cBoohGLYlPujsU5PAz1JAbrcL2HRI0X4pFcOKt+mjgiFJlPgiAMOxxVXXFE6DNhUZNB+8Iyw5/iPcI+MSrDqB704VGr0zmAHg9KoH9UpVfT6xLAyBQHPsx/0djBNhGdH2jEcSi/HySefXO6jwP34xz++znQA7om40nggP+CEY29UtDwf/ucgfxMmeYAG7Ne//vXyOWMr5FOeKzZMJdAvXQmbZ0hlvlgbIx5MiaLyocxhWJl0i2fGfwroFPbxzKLRhT7PkvjSKzpoCg8VNdN9SFumPnEu6fCLv/iLpZ1RsTFUTQ82+ZJrMnpLOvWDxhwVNE4UvXjYPlMO2jTWgOdDWmHvxPHyyy8vpytQFpO+xCm1635wDulKemOT5FHsEjslfuShLkinVJG+POe64LAxokCnF/kAW8T26c3Ddrknpmnl0je2aQBh/9wn00a4Z/TIizRC+z0XzotpPdgi6c4oya/92q+V5TNl6oc+9KFyyhejE03zG2UMdsR9vfe97y3DIb+deeaZZT4fVI4Bz5u480xpFFLvRL7hGlW4HvmU/PnOd76z/GXEi84a8s+g8LgfytZBdeuooP7imZNGjKiQf3CSyYvc77DwIy/wy7PH3l/72teW79aRj7Ef0h27SWlTFy0VLD/L/XBv1MPEu469kCakIc8R28eeY55+OqWKTg3SCfvH4SYcIBzsFj2eDWFjG1H2RN1HPfThD394rbovN6WKMN761reWujSQKYM4d1BZxvG0vF8qRmUvtCt5ltQXpC32TjkS9h7PDQaly/Lly4t3vOMd5bOiTKLMpVyiLo4ZIE0hPk2oE89yyQ9OpLAig9KYe+Mb31hWSOznxrsuZBYD8Y6MRKNzkMRDBBou3G9Kv2swdYjMBaQF1+FB5s6jEUB8uHY8gAADreqkQkalYOeBcV/RuOKabOO0UQnH9KqcUJFEDwNxqN4jBQSVZS78EO61mk7EgYYn90jljQNEo4yGEBAehQ0VBQ0EzqdCq758tlhIG+6BtKL3mOlVZDSmJZBGyDCIK+dxX1TUzHuksOW63DvPeFCmaQt2k0vvEBqR8fyJI/GhUOYXiBfPgEoiFc4JpyDSAH0ccRzenJ0gHOc5AmFGPg/bxQa4Ps8xF1+E4zyLlLY2FmlO2BSc2Hlq61RY/LKPXuLopc0V/NwL+9N0qkqa3wgz8k0/uCbxzt1PSPoMeQ6Rh9vCdUgn8hx5iymr7/qZU0njKZ71MLgnzqOni/ds+GYDDV/uhTSKdO8Kwuf50jCmbqkrVJo4stw/DQxsHNuK+ybe7M+VxeQ1hOdMQ55rpHo8p0F2HbYB6PR7jnFNqJvfSA9sKfIb+uyL/D4oXiHcFz3N5LO08RV5tirpefG8iQv5KFefRN6jl5tngK10bSdAGNQd2Dth4yz8wi/8QlnXpGk9iLB3evHpTOR9QjoCeKbDnKtpACcVxxL7pvyjXUC9X0ewQcpNnF/qTNIqhXxK2YCzwEgI5TDpRng4CYxo0JHCPmxtMTaBLs+COOTK+9QWh5X30wr3TzlDJwNlB++90J7B9qNcGEbkCXTQ5Rpci2tGXTQplDHlpjBaGl14XGTOKODxhJlmRYEzicQDIVEpsAcVJhxLE7/Ow4TIWKEbYaWwj4Iyzql77RR00zjGNehRY9SCXlYKCnrB6X3ICUPz0SOBfpt4VNMJ2CYd4gUkjBwDpxGEt084FFAxPEplSMVIBTpKGPmh55tCj0qJApI59whpVOeeOU7By8gGBSuFGQ0QMigFKkPF1ec7Dkj31H7bPLvQ4RnQOxU9tTnBQWREk+fK/VOJpPDMSYeqLYyCnI1RkWA3xIfKkYqvGl9+sX/yASMJ8b5J3cI5hfAjvdFtk95V0muOAt4lYiQRuw9HHyebDiHK6Tpx5hzyKXmE3mPKiLB3eu4HjbqOCuLAM6Unr67QYKSBiEPB6A4NrDRfRn6pm96RVqEzKI/XtY3Yz++w/EZ5GfmN+pXnGbpAmF3lt4A6iudOulJP4Ljm4koei3xGHmMf5/dLh1HBCBGjD9QdlEd0XtErjr3T+KwTPueQ1uiQVxg94lrcN6NslPHTDHmBkXKcAOpjyoZhwsg1vzieOM+0KUgjnil1KJBuCGUFZQSOJnU9ZRBpRtoxlYp24ShIy3vyerW8DwlbXGx5P4nQvub1BdIZGyUdonynPcV9DoN04DxGStDlGlyLa3JtwpgUVt8NvV/M+YoeGBwMhrhwNughWYoGmKyCqR9kNBwOGhl4r/2EwoJKravMSIVADxwwwoCDgYFTaJFB4t0DCkLOq9sYqAt2GdMraCwRFmFTcOI0171vekpoAPELVEYM++JsUCh3Wel3DWlAmtAjlLOREEYMOI8KhEYdspTwDKhEaQxT2WFPaXyx7fhPrxcOJk4j+YLn2JXNLyU0sqnwmdoVU4coq0kfpjhyz8Pum+N0ClC+h73ToFu+fHnpbFDpdw35iedKJVhXiCN5nWkG5PVJzZOkL404nKTUXqtCWRn5jZHipchvNPKwJ/IaccZJosMlF1+EUSk6InFWo7zoEmyEqc0f+chHVi+KQDyxdwTq2Dt1IPUBeQW7oZH+//7f/yun+HLv0wz5lem2TFtCSCumsA4TyhBGKWiM0kClzqTuTkfvSDvSjH2UNTwD8h8OzqhHh7iPanlfLfNDcDajvMceZ6W8p9OBtP3ABz5Q5kvSl/SnbA97rwvOObpcgylvvETOtaNjYxL4md2tGqbEwDBA/hNhhmJo3MWwsiwdMVWJwpdeCnoZyKg5oSKjkdJV5UzPHA0BhPjQe0TPBHGkQqWgp1IjLuGYjBrujTAQHA6gIqQQCnvuVxjFcTJm9O6k9h7Xm2ZIH54NlWzVPlKJeeTMZ8eRpIJZSrAp5pvSk0bDgDgxtzfii23HfwpUKk6eI6NVTLmgwJ1FsE9skwo/On4or6PSHWbvHOPcKN+5BteinBjHMw975P0Ylm6sK4xkMp8cO6BRMqlwf6RjnfzGO2fx7ttS5DeeOXmLPEZcqnmsKjh+2A8NU5wTOpS6Bnsnnqm9k8+jfCc+g+wd4dwYeecalO/jsvdxQrlAgxIndpjQwCcfUcdhs6QN5UialuznOM+ANGfELt7njfJmVER5j0R5369tQwdmWt7jgMxKeY995uwdCXvOpTv70uMxWMA1aBtxzbjepLB6hIOIxg1GAcpvF0RC8btYIo51rlk93tX9tSW9B+IW8cPTpfDkmeAF07tBBs0JPYJdVs7EgZ45CgCMmQqIzE/BhFdOpsHRQNK5xV1AoUgcSCccB+y3LqRzFKBcp0t7HxWpffQj7oF0oVHOUHjOThCO0WvOS4A0LJb6/ikkGfqnYUbcQiK+rMIR/yPO3CfPMe29X0riGXUB9xoNJhoKi7H3yDfjhJ5lGhV1JRoa6MV9L4a438hDg55Tehy9fmkV+/klrnXyG73GaX6L3wiT37agS1nY7xqkIw090pd6pJrHqsK5NNaxNRp41EPjAhtFAHtH6hL1AekQ5fssQvrgIPCM6kikJ2B3YXsQ27QhaPjjyND2wNFkhgXv9zIFD+dzFFDe04lER8QwW6ROqJb3Tcq/aSDsHZvl3prYO0R6xHUmkdUlLgVdeLsYHZk0NcbFwrXI9GEwNFIxXobJmgo96SRu9ZrM7cudH0JG4Tz0yHzjLoQIPxevEKbApL2QxJG4IvE8omeSno2cRO9Fl+BM4PgQD0Y0iDfTvqiMKKRo6OL0EOcuibQB0iwaCHXg3LRiHrW9j5KwcfIn0x+q+YbVKBiKJk9wHudzX9gChXrOThCOo8MoFXa31BAXKhIaNjybatyJb/znGNthY6ktdAU2Q+9amvZVYVpNdSRhVPFK77GtvQPX6DpvTiJp3mDEOPf8QmJqauhRFueIawK/w/IbeZj6K81vkb+jXszFpyrk+YgjzzLiwHVz51M3Mm8fG6BjCCG/DYovkuYx6DqPpaRl8mLtfZzx7hqmAlMPMN0t96z7CfUG722kCxdg1+nzxQ4Z8WIVT1ZKZFQEu2SxGpwO3qXA9njHA9tr8kyqYH9Me6O85zqDbJFj2PgsPccqqZ02tXeI8yfZ3ld/+I8CKObQYUgMwdHD1HT+V78P/2FcFHoYF8IcbDJMNJ74ZWoOv8OETIG3S0aJqRQIjd64Vk4ocLk3Mhkv0jA9KRoQPCB6c+iBykHc8fQ5jxeWSZscvNhEhUIc8cpxMsisGAP7455zQiFCg4tKCc8/5t9xX1yHuFNgDLpHpjbRK0Fhy/1wHUYaiBcOAcOSTKOJCioH74kQV86nxxkHI53nTSWEzeBoEBbxikYW0wpYgo14pwVZDu5zUDyGQaFH2mK73Cs9MxSS/TIccQ4hPXme0VCP9wdwohYDL27xDGlosgQoYdAwIC3o2SR9+sH9IOgTH54do0nYDAUzaR0VTfrMeV40dHECsQ/ujWfH/0H2hmBbxC+myvEsmSPL88RppHeJexkG+W+xNhb5mVU2WKGoGlfshWMRb/SpDLE1wiPNaLBhE1wLxxd76Af3zbmkN/dKeUA8mD5AuYCd0/uGQ0ZaYt/8H5Sm2BPXI//xrNEnPUZRARBX4oG9k2bYO73q0O/6Ye+kFfrEj/vgPSXsvV9DelSQJtg0z4NnwTNZLIymYu9ck8ZR9SNugK1AaoPUOTxXbI66IPcco2wl35LneI6kMSMClA3MIcfWaQRRVxAPRnm5Jvc5qGxGsPs0v2G/7OOZct1wOHK6qaBD3IgHz5fnSkMS26NBWL0G+Yo4kv6kA4sHsHx0ek5Oos6M8owyicbfOGDufjjw5E3sHRmUl7Bt0oN4UxfyHKmLeQ8VW8Fmciy2LhonNPpZ7ARbJC/knltVwh549tQjpCH2xztc3DfHqM9JH2ydcp92DmUqdkVe4DlQjpC2bFPukici3aLuo0zJ1X3oY6eEzbV5JlHe8x5exDPXDqS85x0i6mraplHeU0YvBV3YC2lB2lImUHdg65TzYe9Vu4+yHZtnqXDyCGU86U+7oV8btS48nyYQl2G0d08bEpU3lQOFJIkaDVV+438dQZdE5jo0yrkmhSAZI3d+COCokKF4OF1OPcpBvHPxCiEzkU5UCjQew6kivlTWxJdKhoojp48QRlS2XYHhE5cYdg2jpwCgEMM5oZCXxcPzZ/oQjZ5qvglhG5vgGVDI8Fx4PmwPspUQzunaZupAfMkD/cqCNH8TZ2yMBhANCeyujmO0WOrkYeJB/iUfp1NnZGkhX1CWUmb1yxtRF5EfyG/okPfSDpeUNL8NK5uRyKvYCWAr/erFQcI55AfCZCVApqLQyKAR1O++OB8Ie1g8QwDnlHSj8dP1NNlRUqcBNI3E86tjJyFxblo+8Uyxl1z5RKOVfMJ5jHbwngX/0cXZoHHM9x5wWnEq2qQ1OlVb7HdPnBPlPXluXOW9jJa+IxwYGw+W3yb0G+GIRiq/GDn/aaBSISMU6EhsDxIa3xSueNdcB7gmPYmDroHHhmcdPc04KfQqkYE4zjEyVQ56jakMKHwJn8I3Bz2gNBKpBMjQ0dPCfbOPDFONV0iswR4OBmEBFVEUDNwvHn5OPwQ9fqnEiCc69EzwS/jcP3HsB/dKWFQupAlxinROIU70YnA+UDHT+BvUi5+y2F6C6ggH90u6EXekCnYeQpyjx5dCD1vE3hc7wkGPHIU18SGdyUvA8+C5DlommJ4n4oI+zw2nGD3ixPOiwMXG03yD8Lx5RsQ/7fWJcwflCeJDXiLtOI8GDDbMs2c/91CnF4lnuVgbiwYXlQv3XI0r5/HsYps05nlz34RJePQ2ExeO0xBkfz94NoRFxcW90qNEGnAf2CXlBfdB/sXWiC/x5NyIQ1UiPdELh2NUpCMc2AbPrMkIB/eBvdPYxmZIN2ytSxhRwKYiPNJvsdDTGXZAnsr1xIUDnZYvlPc8a3TJG/Eibfr8EPYRX2wnnP3IG9URDsKO/IHtD8tvXDfNb5EH+CV/xzVyuqlwncg3XId6mvhxf7l6ELvEvgkXm0eId3pOTshj3D/2TLk+zkYeIxwxzTh6fJuOcJBnKBd4TrMywkH+p57AnuvYSgg2kZZP4SgDeYq047zowCGdsXN02E/6IOyjfA77IW2xYdJ8UN2HfeP0cj3KbWw3HOy0vO+Xf6K8J37cw6D6pWu6sJd0hCNsvckIB3kkRjhIW8rbxZArVwdBXIYxd+SRRy4QYW6UYTocBioJIs+yuNx0E/p9aXx9hS9psqYymY31xVkRaBYgwzGXlA+JMdxJ5uf+WPmEyrAOVHqLGZ5nGBabpZFP5c+StsSBtCY+gzIoDS+WesTeaUBQqfJF26aZTMbHYu2lLW9729tKW6OC4SuwuQ6VccBqMZQl2DtTIfiSOstcYufYfNXeAVtHmILDlAe+Wk7epdLG3mmcziLYCozSXmgIVL803q/jSRYPU214b4BOBFbVYqouPe1h6zl7x+nC3pmWE9/hIN8yvRl77+dgL1XZItNJF/bCB4j57ggdj7RlYiW5aMtUHaxoz2DzH/vYx8r8QXsIJ5IpbazytxjIM00IhyOXL4PVU6o4KTJy3IRIP+h1Yv4oczbp6aD3AWk6IlaXMOaUaExBLkMOIuwduDbXyYUhshT0s/fYj623sXd+IWfv2v9gTJ/uyKUt+6J8b2vvkF4nxecpS0XO9hZTvkOcz3Um1d7XcjhoOKaRrkYwbiR3bDFwrTbXmxY90jYq+iaMO5519Xj+jAow5M3wLkOsDHUyVBrTC0YF8Ql7i7ilvxwDKpd0iDPOr0qAnXdt7210QL3Rsth4Ns2/iwkP6WdzcYy4VO0dQj+VIOwdXfZznSqxPxd2UL1uXcat15YIjylovJx72GGHFUceeWQphx9+eNnRQroztSjKDmgbz6XQa0NXehwPe0vPTfcD9h4ORBA6qQSRP3hG7K/ae5wf9t6WNMwmqJdnWvTaQFhhb/yvhh37sVlsd5i9p1Cuo5OW7+l58T/2DyLO7ULmubm4wShEiRRz7RiSZGiS/5zMzVRvaBTEdZsyLXqR2E0Zdzzr6lHpMs+fqQXYBkN4DL8xn3SUpOkWcWPkjSFHhg5ZOYzpIZxD5mS4POwZCZ1U4hj2zpAo+7gmDhTXZIUXpk5EmMD129h76DdFvdGy2HimdliHtuGl4YT9YptMXWTqHysYhb1jv9g75/SzdSTsHWcjtXeuyfQqrsl8cOAYcP1+9h7Xbcq49doS4TGtmDnVrLzGtB5WbuOXsocOFuaUp50rbeO5FHpt6EIvtbG4H+wbZw9Hj/cD2QbSOi3f4/yqpPYe75tg71yTl5y5JvYe5wNxCGlKXKMp6uWZFr2mVG2McBHsm/eUmE7FVFlslXOwX6SuvUOUR1yDa9FJwi9hxPlAvotwcqTXH7Vs8LMK5w8IhMzM/HV6rXmhkwYYLyjysiTbzPXlHBp23GA1AYN+L42vr7D0Yrw0zkukjARMO7yYRMOcXxo+zGO+4IILGr9QSEZAvwo2FZUR6RZgkzSQaChR+bM6BvCS2WWXXVbOeyQOqU5Kaqs0vnixivdPWDSAqWE8JzIo2zhPxA17j+uFvfe7vnRLP3vpGpZljKVdY9WiURL2DqltMXpIPqNMpeFLI5g40Njl/Q1sPpyOYfBSJuV7LE2OvdP4otOAbewdW6/a+7QSDdW29kIjgPe8eO6kD3O26Vwh/Xm/kWU5eal8Kexx2snZO/sod+ngPOSQQ8rRJdodpC92y7tKvKdHo2qQvUf5TCcYNk99gZPIeyA8T+oMniULBkSDjvOxF2xfpA5N6iJsMsrSsF3snzKYJdhZohp7p7zHJnkh/ktf+lK5YEWdMLg2L42feeaZpY3zEj51BUvo0zFMByrt98g7EYeIUz86eWn8iCOOWIgEQUhIKiEaYnhINCqJMIUrX4NktYFYwSBNvNj2pfG14SUgesoo2Fj+kPSbdii0sQsqYxr4ZBCWZWxK7sWrMNrUtqjoyThkzvh+Aw0kvqWCc0vGpHIJZzh0q3BtjlXtHcea9b/pVeOeCBN754UtGphMFQv7Dr3YlvGxVC920tinIwbb4mU8bGJUYEsQtoTtUWFg7/SqU3bQ8MLeyWM49th9NJYQGGSLYbNcG3vH0aCCw5GJdfLpNKARzSp9OPBx3Wm1d2wF2toLHQ+kU7WHkIYsHRWsEMX7ajZSm5GzdxwC2hwszBDTdLHByy+/vHwRNhpeYe+D7DCun9o7354gL/ECOQ0xnHQWw8HeeY44H7RxsJWw97B/kRx166KcvWPftDOw93AQsHdsnSWIWdAjdYaDfnZPGKeffnpx4oknlqN3tN1ZTY8lixnJJp50kpGfWN0Q5yMt3yF37S5eGl89whEnEREKVXpxaBzTkCNxKXzpAaZgINEYVo7etTQARzjWhodNg5UHjcdImk072Ah2geOJneBwkEGaQmUwyIPnOBmTBh92ReMLo+bbK6w4cs4555RLv8VUwKotVokMAam903Cg4sHeeT5MGaN3AHvHuUGP+41Kb1AY0h3D7KUrKOvIu5GH29j6MLAxKgsceUbvGMXDBgmLnt1PfvKTZbmKQ5DaIZLadT/iXITKjeVRqVC4DhUgDT3snQYZ16MOiNEOZNrAVqCtvaBHucDzxhmjnKORSnnDNuXBNKbLpBD2jt3R8GJUg8YX6YpjfcYZZ5QNMMplnkV0Jg2D64bNhrCiGA0uHHWO07NM3iKv0SDjnHAeQ0dkEE3rItrM2DsjbjgDTN/G/uhIomPzn//5n8sRa8qZtHwHbHYYxx13XLF8+fJSj/Yms2ko34knHVa038OZx85xOobZemcjHL3/q0GRBOKX3gcqIgoFPCZ6fGjgse4ylWE1wqznzA03oUnCpqR6TXRHEV4TpkkPGVd49FwxZaQf2CCjGzgA/FJhsBwoy8XRK4VzkDa8hkH8cuexP+w9Gl80+rB3huKx93A46oQTcG7TNIE6ernjXYaXY9x6FKBMUWzKoPA41o9x3x869HZh7/S48rVferyoiNIpINWGF3qD7qMK58ccXuydUUOceuyd7SjfowGWEttN72+xeuTPJkTvXFN7War7G5cettNUBwhv1Ho8U2ydDk0aRtg5QgMMByDaF1V7HwRhRdoE7CMshGlbTJGkfOcd1eipJlzqoqruMLpIF+h3rKvw+jHteuwfRNvwhrVdqkQYtKcp47Fp2jKMstGhhOPBPuKTK99h0L3gbBx//PHl/2jLUMbjXDOazQgfjg7HsPf49k/umrHvPe95T/lblzrxzDocEMpEkIjjnZFRWQqVQpyeARqBHEupO9SUEhGMMOuS6hGXuowivCZMkx6NjXGFx/QU7KkfNPDJGIykMJ2PRgQ9VVREbXqjiN+g89OMSoOPjMqcYhpk9BKwj3PqQlhN0wTq6OXsvcvwcoxbDxvgmTRlUHjYez/GeX/ohL0znQ9ng0qNHq9wNDgHqUJYuf2DQCdsmcYe5TZpyxRQeuEo3ynzq/Ye4bS5P2irR/yagK1AU3tZqvsblx51c1MdILxR6rGfMhzHAhsPe2e6WupoxH3WhbByOuwPwd5piFG2Yx+MdhAHbL9J+Q797m8Yw/T6tWe6Cq8f0643qHyHtuENa7tUIRzKdxwLRkoZxWOKPaNvYe8hVSJ+uWNB6nAAOtGewd4ZuWbaONPSY2QvOp2qRDh8f6oJdeI50OFAMY1Q3EBOgg9/+MPFySef3NuqR+gPimgO9fJMix7TpZimkoNrpY2sVAiv2gtQB/TQH0TcC4S9RyXE/5A6cN6w8HKol2eQvQxi0u8vzuU3Z/NxrB9t4olOlTrle/xvG9649LAVaGov03J/i9FrqgOj1GN7kATp/7oMi2ekG7+p0AjD6YjtunBuF/Hsh3p5xq3XpC7i+hEGv9UyPvb3gzjCoHOqDgegF/cX//tJSmwzq6MJoTfwXoY5HFX6RS7I3fgw6kQ0h3p5pkWPObuDVvypXi+2Ca9pWNBUL+4r1Yt9dRhXPINZ1xtmL/2YlvuDVK/uNdqEhw6kerEvpbovp1eHcethK9DUXqbl/haj11QHRq03bN844sm5QZQt6b46jCOeKerlGbde07qIMAgr/qe/w6jq5ejncEDoxXbKoH2MQDahTjwbOxzDWLFiRblEVxPqRDSHenmmRY+hbF5uagrhNQ0L1MszLXraS542eujArOphK9DUXmY9XdBrqgOzrmfZkke9PG3shbCgaXh19Oo4HHXpUq/ZhEUREREREZEGzB1++OE/c0gWyvm7vEjFPMbywM+8laYeDnz+858vv+jZhEn0xHKol6etHosPxGoyTSC8pmGBenmmRU97ydNGDx2YVb1Ynaqpvcx6uqDXVAdmXc+yJY96edrYC2FB0/Dq6J199tnld/NSmoTHypwsWMJyufEuX1PqhFc6HCwVx5KIe++99+q5ryi1CZS34XnzXmQYTZeWk/Ub7UXqgq2A9iJ1sGyRJozTXqIBP6g9zgdcWeEtpY5ewHeX+MZTfFi2zWqltRyO3/iN31g44YQTyiW+WAYRgbYOB99GYPnQJjRJmBT18kyLHuutsx56UwivaVigXp5p0dNe8rTRQwdmVQ9bgab2Muvpgl5THZh1PcuWPOrlaWMvhAVNwxuHHi+II4xyXHTRReWHN1mevfrZi0FEOBFujrkrr7xygS844yRwYpzMb5sHwXBM0yVLmyRMinp5pkWvi+8qDEK9PNOip73kaaOHDsyqnt/hyINeUx2YdT3Lljzq5WljL4QFTcOro8d3W6rfHGkSXpzD72OPPVa+GvEP//APfb/VkSPOi3BzzP3gBz9YeOYzn7n6Q2oB/+sGlMJHRvjASROaJEyKenmmRY8vbPKxpaYQXtOwQL0806KnveRpo4cOzKoetgJN7WXW0wW9pjow63qWLXnUy9PGXggLmoZXR4+vl+MopDQNL87Dybj55puLv/iLvyjuvffexvoRbo5ylSochEEniYiIiIjI7IEPgOAPsIDUNtts0zsyOuY32mij3l8REREREVkfwelg8Sccj7qjG3XxOxwiIiIiIlIyamcDdDhERERERKQzdDhERERERKQzdDhERERERKQzdDhERERERKQzdDhERERERKQzdDhERERERKQzdDhERERERKQzdDhERERERKQzdDhERERERKQz5i6++OKF3v+14PPmbb40uPvuuxdXX311b6sehAVNw1Mvz7Tofetb3ype8pKX9LbqQ3hNwwL18kyLnvaSp40eOjCretgKNLWXWU8X9JrqwKzrWbbkUS9PG3shLGgaXh29vfbaq7jiiit6W6tYbHhf/OIXi/vuu6/8PyrmHn300VVXr9D2QWy44YbFk08+2duqR5cPIod6ecatd8011xS77bZbb6s+hNc0LFAvz7ToaS952uihA7Oqh61AU3uZ9XRBr6kOzLqeZUse9fK0sRfCgqbh1dF72tOeVjz22GO9rVUsNrw/+7M/Ky699NLyfx0inNDP4ZQqERERERHpjPmqVyQiIiIiIusf999/fzlbadBoRRvmm05/EhERERGR2ePBBx8s7rrrrt7W6Jh/+OGHi5/85Ccj92RERERERGTywQ94/PHHy5fib7vttt7e0TH/kY98pPj2t79d/PSnP+3tEhERERGR9YFwNm688cbirLPOKlauXNnqhfpBzC1btmxh2223LQ444IBip512Wr3UF4G3CSz3tvwwYnSl7dv06q3NtOhdd911xa677trbqg/hNQ0L1MszLXraS542eujArOphK9DUXmY9XdBrqgOzrmfZkmcp9Jjm/93vfrf44Q9/WLstGeE99alPLd892GSTTYrnPOc55f9BtI1nG3shLGgaXh29Zz3rWQWzlVKahPfQQw+VU6hYfeuSSy4pl8NtmjZxboSbY+7www9fwJN5ylOeUmy++ebFHXfcserAz5QHKfbjU5/6VPHmN7+5t1WPOhHNoV6eadHbbrvtiltvvbW3VR/CaxoWqJdnWvS0lzxt9NCBWdXDVqCpvcx6uqDXVAdmXc+yJc+49eAZz3hG2ZjfYYcdSuFawyAszrvnnnvKxvINN9xQ3HLLLWWP/SDaxrONvcR9NA2vjt6ZZ55ZHH300b2tVTQJ7+Uvf3npdODooRe6TagT3twRRxyRPYpymwexYsWK4thjj+1t1aNJwqSol2da9Lbeeuvi9ttv723Vh/CahgXq5ZkWPe0lTxs9dGBW9bAVaGovs54u6DXVgVnXs2zJM049zkfvmGOOKfbcc8/i6U9/erldh9AFOtBZZemiiy4qzjvvvGKDDTYo9+doe39t7CXi1zS8OnrLly8vjj/++N7WKroML0cdPR2OBqiXp62ehXwe9fJoL3na6KEDs6qnw5EHvaY6MOt6li15FquHMK1pq622Kq699tpyfz84d9NNNy1+1iYtZ9w0Ad302mw/8MADxbnnnjtwlAMdPuB35513ltO35ufrfZpOh2Nd6ujpcDRAvTxt9Szk86iXR3vJ00YPHZhVPR2OPOg11YFZ17NsybNYPRyNQw89tJwaxTvC7B8EOsPOydFWj9EQpkYx/eqCCy4obr755lr3q8OxLnX0/NK4iIiIiIwEGp3Pf/7zi3e/+93FW97ylvKdDKY2MYIwSGi05vYPk7Z6yI477lgcddRRxTvf+c7iZS97WemESDfocIiIiIjISMC52GeffYrdd9+9dD6eeOKJcmrTMKl7XlUWo4cQx5133rnYb7/9ypWupBvm8QxHKZDbryhV0VaUJqK9KHUlyB1TlKpoK6OVjTfeuGzA81FpvvHGqAGN+kkU4kYciSsjHM973vOy95TKpNnLpMWnn8znHsBiBHL7FaUq2orSRLQXpa4EuWOKUhVtZbTy/e9/v/zMAuQanpMosOWWW5bvZuTuKRXI7V8qmbT49BOnVImIiIiISGfocIiIiIiISGfocIiIiIjIek1MrZJu0OEQEREREZHO0OEQEREREZHO8EvjDVAvT1u9cX/d9eyzz14d1yYQlnrrMm69K664othrr716W/UxPdcFHZhVPWwFmtrLrKcLek11YFr1li1b1vs3GL80nqet3pNPPlmcdtpp5apPTSAswmzKqPTuv//+4uSTTx76LQ6/NL4udfQc4RARERERkc7Q4RARERERkc7Q4RARERGR9ZqYFiTdoMMhIiIiIiKdocMhIiIiIiKdocMhIiIiIiKdMbds2bLsGlbMZWu6LBacccYZxXHHHdfbqsckLt+VQ708bfW22mqr4o477uht1YfwmoYFZ511Vql72223FR/72MfKpftSNt100+K9731vsdFGG/X2rIKw4h6Du+++u/jwhz9cPP744709q9h5552Lt771reX/nF4dpl3vhhtuKJfH7oIdd9yxcfmyvj6HQaADs6p35ZVXlr977rln+VuXWU8X9JrqwLTqvf71r+/9G8y466JZ16Nu/eu//uupWxb3gQceKH7+539+6LK4bewlwmmannX0Tj/99OKEE07oba2iy/By1NHzOxwNUC9PW72l+g4HDsehhx5afOtb3+odWcNFF11UHHDAAb2tVRBW3GOAw/GOd7yj+MpXvtLbs4p/+Zd/Kd7+9reX/3N6dZh2vZtuuql0DPqBQ/fjH/+4t1Wfk046qXjjG9+4znrjw1hfn8Mg0IFZ1fM7HHnQa6oD06rndzhWMW69af0OBw4H9Yzf4ehGzylVIgkf//jHix/84Ae9LZHRceGFFxYXXHDBWnLppZf2joqIiMwuOhwiCf/zf/7P4rzzzuttiYwGpt594QtfKA4++OC1JDfKJiIi4yd66aUbdDhEKpx66qnFzTff3NuSplBo/8mf/Elfed/73le8853v7J29Nn/8x3+c1UF22GGH4ilPeUrvTBERkdHSdCqR1EeHQ6TC9ddfX3zuc58rnnjiid4eaQKOwW/91m/1lV/7tV8r9tlnn97Za/jFX/zF4l3veldWBzn88MOLN7/5zb2zRUREZFrQ4RDJ8Ju/+ZvF5Zdf3tuSpjAS0U+e/vSn985al9z5IRtssEExP2+RJSIiMm1Ye4v0gRWnvvvd7/a2RgujJ6zm9KUvfalcYYIldlmq9/Of/3xx7bXXFo888kjvzHW5//77i69//evryIMPPtg7Y22+973vrXVeLBmag9Gd9Fzkqquu6h2dDliFjNXDWDGPdOU5siQyKxcNWxDguuuuW+f+ke9///u9M9bm4Ycfzp7PMwSuhzBFr7qEMjz00EOrz0H6PUMREZFpRodDpA9/+7d/W5x//vm9rdHByMmf//mfl0vHHnbYYeX62az9zXK6Rx55ZLHvvvuW7zmwqtFPf/rTntYafvKTn5T6r3rVq9aSfsv00ZBNz/u93/u94t577+0dXZvLLrtsrXMRHKNpAGfpf//v/13GmWWP+V4H6fqe97yneMMb3lC88pWvLH73d3+3dOr6LcvLcoi/+qu/Wl7joIMOWp0GPIscX/va11afE4Ie77H88Ic/LD7ykY8Ur3jFK4rddtut+Iu/+Iue1hr47gvHEaaasSyjiIjIrKHDITIAnIFRvUCOo8Boxt577102+gfxV3/1V2XDlQbro48+2tu7ihe84AXlsSr33Xdf79/aVOPP90i+/e1v97bWQAP5xhtv7G2tgTXHJx1WgHrLW95S/Pqv/3o5AtSP97///aVT93//7//NNu6333774j/8h//Q21oDa8p/5zvf6W2tgtGvD37wg72tNXDtXXfdtbdVH1esEhGRWUWHQ6QH3+CglzmFFSvOPffc0llYLEzxqX4NdBi/8Au/UHzmM5/pba3hZS97We/fGu66667evzXghORGab75zW/2/q2BBjjfhkghnBe+8IW9rckEZ4MPfOXuqR+/8Ru/UTpzjz32WG/PGvbff//iTW96U29rFdhAdZSDbabBpey+++7FgQce2NsSERER0OEQSWAaThVWSFrsB9rQP/HEE3tba8MUHqbb0Dufg6lWvBeQkvuCKyMZ1Xc/GMk4/fTTe1tr4H2G6sgJPfZMqUph+drNN9+8tzV5MN2r39eEmUr1Z3/2Z6Vz8axnPau3dw3/7t/9u/LL8lW22GKL4pd/+Zd7W2v4oz/6o+KWW24p/99xxx3F//pf/6v8n8JUuBgR2nDDDYttt922nOaFHHLIIeX+lJNPPnn1cezMdeBFRGQW0eEQSdhzzz2zc+0X8wI5LxZ/+tOf7m2tAafh4osvLr8xwTSeP/3TPy1fNn73u9/dO2MNNIxXrlzZ2yqK5z//+eUysim8T1CdTkTDOAf3WJ0ilJuS9fKXv7x8r2ESYfSJl+5zfPGLXyydjd/+7d8uv6vCi/L//b//997RNTC9LPeiNu/R4JCk3HDDDcWXv/zl0qnj45DVEY9f+ZVfKV796lf3topio402Kp0eroPjdsABB/SOrOGNb3xj8W//7b8tz8HJ2WqrrXpHREREZgcdDpEElmx9/etfX2y66aa9Pav4P//n/6wz3aguvBeBU1GFKT377bdfsfHGG5fbT3va08q5/7ne9b/8y79cy3nA4eAF5RRGLdLVlH70ox+tMzKScuedd/b+raK6DZPcAGa0oeoUwJlnnlm+jB/PkJGGbbbZphxh4j2PFL4sz6pWVZ797Gevcy6ccsop5ShQzik89thji+c+97m9rbX5uZ/7ud6/dXGpXxERmXXmGcIfpUBuv6JUZdy2Qo94CN90oAc6FeAYvfp///d/v3o/Pfz80lNOIzeuwTXjnJC4RiroVM+j5535/tVzEd6b+MM//MO1zmdp27vvvnut85i6k55DPFl9Ko4znYppP+k5qTAdKc5lFIbt9PgRRxxRvr8R54xSIA0Lgdy5IdXjrMpVvQaOBo5Yel4IU6VYraqqw8vaufP32muvcjWw6vm5a7AIAKtg5a4TAlU9yJ2rLE6C3DFl/ZFqHdBPILdfaS+55zENQgdQ7n5SmTR7mbT49JP5XIIvRiC3X1GqMm5bSQ2f5WZZGjUViOMHH3xwOWWJ/Xw/gV+Wl2VJVV4g5xyumeoj6TUQ9jEVp3oejVl6vatxDHnRi160jg7fkEiv/ZKXvGSt48STaVJxnP/p8T/+4z9ea5tvVeCgcC4jI7xHkB7n5WccjrjeKAXSsBDInRtSPY7DUb0Go1ObbLJJNk2ffPLJ4nnPe946OpEGVeH58HXz6vk54QvojFTlrhMCVT3InassToLcMWX9kVw5kBPI7VfaS+55TIMwdTl3P6lMmr1MWnz6iWP5IhmYGpN7yZsXuwdNU6rCyAEORxXeyWD0gXcpqvI3f/M3xTnnnNM7cw3Vdw1YHrc6/erWW28tPyYH1XB5P4WRk4CpR/EeR+79lJ133rn8wvckwnSx3NK+fOOE76ek6fk//sf/KH+ZPsW7HVV476XfKmR8H+NDH/pQbysP0+1IWxEREcmjwyHSB6bI0FitwrsXNHjrwKhD7uvWOBX/6T/9p6z8/u//fvm9jirVRvFznvOc8oNyKUwFIzymX/GCc8A7DEzB2mOPPXp7VsH7C/To5D4EmFsJa1IgLaqrbAEv9+fSM/7zPY0qPKP0hfwqjHYNWqnrda97ne9hiIiIDMBaUqQPvBPBFB16uVPoQecF7TofaqMhGyMOXcCyqymMqDA9im9yMIIR/Jt/82/KaVrVl8BZvQlno3ovvKfA+ZMKU+JwFMYBU5/uueee3ta6xNQoERERyaPDITIAXiD/nd/5nd7WGt72trdlVzeqwsvpvFNQ5fjjjy9+8zd/Myssr5rbn+PFL35x798acCCqH8GL6VGMWqTTsFg6ltGQq666qrdnFby/MckOB+maW66XeFfTrV96hgxa9pd5p+lIUY5RfRhSRERkVtHhEBkCX55mhKANLHX70pe+tLe1hpNOOqn8SFwTwcmpwnscfNguBUeIkYuU+Bgdy71yPymMbnzwgx/sba1ixx137P2bTFjhiSllVd71rncV/+W//Jds+vUTvoPRz+nAEcstU5xC+vPuiIiIiOTR4RAZAt+86PeV8GHwhWtGF6pcc8015SpIjH5UBZ3c/mc+85k97TXgQOyyyy69rVX8+3//78vlXAOW4E3fx9huu+16/1aB81Nlkt/fAByEcKJSWHmLqVZpuvVLz1Ry8IG/T3ziE72twfDOTe4DgiIiIqLDIVILvjz9V3/1V72t+uBU5BwOeuGHrXZFw5lleGn4DoLvdgyCFZTi44LAcrq5j9oFvL8x6CXpSSF33x/+8IfLL64P4wtf+EL2RfkURi1YSrgKXzfnJfwUVhy75JJLelv1GfSyuoiIyKygwyFSA3rUly1bVuywww69PfXh6+GseFXlv/7X/1ouj5t76ZhvTLAa1pFHHll8/OMfL1+S7gcftBtEdUQDZ4KP+vXj0EMPLUd1Jh3er8lNdTv66KOLs846K+uo8fI3oxY8y3/4h3/oOyrBhxZJ/yr/+I//WH4dnmdXhWO8rJ+DVaxyI1R8Pf6xxx7rbYmIiMwmOhwiNcHZ+G//7b/1tupDT/xv/dZv9bbWwLc2Xv3qVxd/+Zd/WXzyk58se84/97nPFf/0T/9UvPOd7yze/e53l+fxXsKnP/3p8n8OPs73H//jf+xtrc3JJ5+cnR5FY70f22+//VQs88q3Uo477rje1towSvMnf/InxYoVK8p0ZqSI0Q+ew1vf+tbyHEaZPvrRj2YdvgsvvLA8lsKoBi+lP/3pTy+dDiSFsJjSlYMX9nNTt1iQ4P3vf3+5ohhSfXlfRERkFtDhEGkAjcxwBJrAF6tzveLwn//zfy575Q877LDiqKOOKn71V3+1uOCCC3pHV/GpT32qXE0qB+8o7LTTTr2tteEF8dxoRe5F9mDS399IOeigg8qRihw4hzgkfAWckaKf//mfL7/TkcLHABllSGGFr1NPPbW3tYY//dM/LZ0xYHnh3/3d3y3/p/A+zM0339zbWpvqNKyAl86POeaY4h3veEfxxBNP9PaKiIjMDjocIg1gVSgark3ZdNNNi1/6pV8ql6FtCg4IqykNWqY29wI19HNEWE73j/7oj3pba+Dl+EleDrcK78iwxDDTmZrCKAijGNXRHkaaeKk/hRXCGI1KwfnMrWCFfu7dDN7lwbEUERFZ39DhEGkIL5AzDaopz3ve88pvQnz2s58d+NJ2wHsfH/rQh4rf+73fG/pieM5J2Guvvdb50F/AFJ/dd9+9t7WGffbZp4znNMEL8Uwd43sZdZcv5uONjG6QRinXXnttccopp/S21oCTydS1lM022yw7pYtVwXJTo3jXhqlvhxxySG+PiIjI+sHcsmXLFnr/12Jubq786FVTzjjjjL7zqvtBWNA0PPXyTIsejeHqdJY6EF7TsIAXidG98847i69+9au9vWvguw68TFyFsOIeA6bN8LXxKixTy9fJIacXMD2Ka3D/xOeBBx4oV6ViJATngS+IM32n3zScKryHwLSrJ598srdnFfT+41zk+MY3vlFcffXVva1VMILzute9rrc1mEH3Nwj0KCeqcQXSP/d9DeDbIqy4NQi+sk668tI9acs2acO0M16WJz15iT73nRHOwxmsfsGc91mYEoeDUYUX088+++x1PvxHmjONK10dLPjXf/3XMt1vuumm4r777itHQ7g2o068I9JvVKofbZ4DOjCrevEdmmH2UmXW0wW9pjowrXpRFg9j3HXRrOtRtv/1X/914+m5hEWYTRmVHouI0Hk16GOw0MZeIpym6VlH7/TTTy9OOOGE3tYqugwvRx29uSOOOCJ7FOWmAQIvTh577LG9rXpMYsLkUC9PWz2mAdEwbArhNQ0LaBhGXJtAWF3qsUpRNHI33HDD4hnPeMZExrPKuPVw8KojEoPAgSBdWeGLdKXx3yTcru+PuBFHHA4+ZIiMKz3RgVnVi86AJvYCs54u6DXVgWnVy3Ug5Rh3XTTrejgcp5122lQ6HEwrpiweRBt7iXCapmcdPb4DRediSpfh5aij55QqkSWGr5EzMoLklk6VdlBpsDIUo0aMcESBOCnQixbxwwZERERmFR0OERERERHpDB0OERERERHpDB0OERERERHpDB0OERERERHpDB0OERERERHpDB0OERERERHpDB0OERERERHpDB0OERERERHpDB0OERERERHpDB0OERERERHpDB0OERERERHpjPm5ublilAK5/YpSlXHbysLCgjLFArn9ilKVIHdMWX8kVw/kBHL7lfaSex7TIPPz89n7SWXS7GXS4tNP5nMJvhiB3H5Fqcq4bSWXAZTpEcjtV5SqBLljyvojuXogJ5Dbr7SX3POYBlm5cmX2flKZNHuZtPj0E6dUiYiIiIhIZ+hwiIiIiIhIZ+hwiIiIiIhIZ+hwiIiIiIhIZ+hwiIiIiIhIZ+hwiIiIiIhIZ+hwiIiIiIhIZ+hwiIiIiIhIZ+hwiIiIiIhIZ+hwiIiIiIhIZ+hwiIiIiIhIZ+hwiIiIiIhIZ8zPzc0VoxTI7VeUqozbVhYWFpQpFsjtV5SqBLljyvojuXogJ5Dbr7SX3POYBpmfn8/eTyqTZi+TFp9+Mp9L8MUI5PYrSlXGbSu5DKBMj0Buv6JUJcgdU9YfydUDOYHcfqW95J7HNMjKlSuz95PKpNnLpMWnnzilSkREREREOkOHQ0REREREOkOHQ0REREREOkOHQ0REREREOkOHQ0REREREOkOHQ0REREREOkOHQ0REREREOkOHQ0REREREOkOHQ0REREREOkOHQ0REREREOkOHQ0REREREOkOHQ0REREREOmN+bm6uGKVAbr+iVGXctrKwsKBMsUBuv6JUJcgdU9YfydUDOYHcfqW95J7HNMj8/Hz2flKZNHuZtPj0k/lcgi9GILdfUaoyblvJZQBlegRy+xWlKkHumLL+SK4eyAnk9ivtJfc8pkFWrlyZvZ9UJs1eJi0+/cQpVSIiIiIi0hk6HCIiIiIi0hk6HCIiIiIi0hk6HCIiIiIi0hk6HCIiIiIi0hk6HCIiIiIi0hk6HCIiIiIi0hk6HCIiIiIi0hk6HCIiIiIi0hk6HCIiIiIi0hk6HCIiIiIi0hk6HCIiIiIi0hnzc3NzxSgFcvsVpSrjtpWFhQVligVy+xWlKkHumLL+SK4eyAnk9ivtJfc8pkHm5+ez95PKpNnLpMWnn8znEnwxArn9ilKVcdtKLgMo0yOQ268oVQlyx5T1R3L1QE4gt19pL7nnMQ2ycuXK7P2kMmn2Mmnx6SdOqRIRERERkc7Q4RARERERkc7Q4RARERERkc7Q4RARERERkc7Q4RARERERkc7Q4RARERERkc7Q4RARERERkc7Q4RARERERkc7Q4RARERERkc7Q4RARERERkc7Q4RARERERkc6Yn5ubK0YpkNuvKFUZt60sLCwoUyyQ268oVQlyx5T1R3L1QE4gt19pL7nnMQ0yPz+fvZ9UJs1eJi0+/cQRDhERERER6Yz5nIe3GIHcfkWpyrhtJedxK9MjkNuvKFUJcseU9Udy9UBOILdfaS+55zENsnLlyuz9pDJp9jJp8eknjnCIiIiIiEhn6HCIiIiIiEhn6HCIiIiIiEhnzB1xxBGrJoBVYC4bc66asmLFiuLYY4/tbdWDsKBpeOrlmRa9rbfeurj99tt7W/UhvKZhgXp5pkVPe8nTRg8dmFU9bAWa2suspwt6TXVg1vUsW/K01XvyySeL0047rdhyyy17e+pBWITZlFHpPfjgg8WJJ55YbLTRRr09edrYS4TTND3r6C1fvrw4/vjje1ur6DK8HHX0HOEQEREREZHO0OEQEREREZHO0OEQEREREZHO0OEQEREREZHO0OEQEREREZHO0OEQEREREZHO0OEQEREREZHOmDvllFOaLbY7hD//8z8vfvu3f7u3JdKfjTfeuHjkkUd6WyKD0V6kLtgKaC9SB8uW0cK3GN7whjcUm222WW9PPdCL7zk0YVR6jz76aHHGGWcU8/OD++InzV6mpd3tCIeIiIiIiHSGXxpvgHp52ur5ddc86uXRXvK00UMHZlXPL43nQa+pDsy6nmVLnrZ6fml8XSKcpulZR88vjYuIiIiIyHqPDoeIiIiIiHSGDoeIiIiIiHSGDoeIiIiIiHSGDoeIiIiIiHSGDoeIiIiIiHSGDoeIiIiIiHSGDoeIiIiIiHSGDoeIiIiIiHSGDoeIiIiIiHSGDoeIiIiIiHTG/NzcXDFKgdx+RamKtqI0Ee1FqStB7piiVEVbGb0sLCxMpczPz2fvJ5VJs5dJi08/cYRDREREREQ6Yz7n4S1GILdfUaqirShNRHtR6kqQO6YoVdFWRi+5Hu5pkJUrV2bvJ5VJs5dJi08/cYRDREREREQ6Q4dDREREREQ6Q4dDREREREQ6Q4dDREREREQ6Q4dDREREREQ6Q4dDREREREQ6Q4dDREREREQ6Q4dDREREREQ6Q4dDREREREQ6Q4dDREREREQ6Q4dDREREREQ6Y35ubq4YpUBuv6JURVtRmoj2otSVIHdMUaqirYxeFhYWplLm5+ez95PKpNnLpMWnnzjCISIiIiIinTGf8/AWI5DbryhV0VaUJqK9KHUlyB1TlKpoK6OXXA/3NMjKlSuz95PKpNnLpMWnnzjCISIiIiIinaHDISIiIiIinaHDISIiIiIinaHDISIiIiIinaHDISIiIiIinaHDISIiIiIinaHDISIiIiIinaHDISIiIiIinaHDISIiIiIinaHDISIiIiIinaHDISIiIiIinTE/NzdXjFIgt19RqqKtKE1Ee1HqSpA7pihV0VZGLwsLC1Mp8/Pz2ftJZdLsZdLi008c4RARERERkc6Yz3l4ixHI7VeUqmgrShPRXpS6EuSOKUpVtJXRS66Hexpk5cqV2ftJZdLsZdLi008c4RARERERkc7Q4RARERERkc7Q4RARERERkc7Q4RARERERkc7Q4RARERERkc7Q4RARERERkc7Q4RARERERkc7Q4RARERERkc7Q4RARERERkc7Q4RARERERkc7Q4RARERERkc6Yn5ubK0YpkNuvKFXRVpQmor0odSXIHVOUqmgro5eFhYWplPn5+ez9pDJp9jJp8eknjnCIiIiIiEhnzOc8vMUI5PYrSlW0FaWJaC9KXQlyxxSlKtrK6CXXwz0NsnLlyuz9pDJp9jJp8eknjnCIiIiIiEhn6HCIiIiIiEhn6HCIiIiIiEhn6HCIiIiIiEhn6HCIiIiIiEhn6HCIiIiIiEhn6HCIiIiIiEhn6HCIiIiIiEhn6HCIiIiIiEhn6HCIiIiIiEhn6HCIiIiIiEhnzM/NzRWjFMjtV5SqaCtKE9FelLoS5I4pSlW0ldHLwsLCVMr8/Hz2flKZNHuZtPj0E0c4RERERESkM+ZzHt5iBHL7FaUq2orSRLQXpa4EuWOKUhVtZfSS6+GeBlm5cmX2flKZNHuZtPj0E0c4RERERESkM3Q4RERERESkM3Q4RERERESkM3Q4RERERESkM3Q4RERERESkM3Q4RERERESkM3Q4RERERESkM3Q4RERERESkM3Q4RERERESkM3Q4RERERESkM3Q4RERERESkM+bn5uaKUQrk9itKVbQVpYloL0pdCXLHFKUq2sroZWFhYSplfn4+ez+pTJq9TFp8+okjHCIiIiIi0hnzOQ9vMQK5/YpSFW1FaSLai1JXgtwxRamKtjJ6yfVwT4OsXLkyez+pTJq9TFp8+okjHCIiIiIi0hk6HCIiIiIi0hk6HCIiIiIi0hk6HCIiIiIi0hk6HCIiIiIi0hk6HCIiIiIi0hk6HCIiIiIi0hk6HCIiIiIi0hk6HCIiIiIi0hk6HCIiIiIi0hk6HCIiIiIi0hnzc3NzxSgFcvsVpSraitJEtBelrgS5Y4pSFW1l9LKwsDCVMj8/n72fVCbNXiYtPv3EEQ4REREREemM+ZyHtxiB3H5FqYq2ojQR7UWpK0HumKJURVsZveR6uKdBVq5cmb2fVCbNXiYtPv3EEQ4REREREekMHQ4REREREekMHQ4REREREekMHQ4REREREekMHQ4REREREekMHQ4REREREekMHQ4REREREekMHQ4REREREekMHQ4REREREekMHQ4REREREekMHQ4REREREemM+bm5uWKUArn9ilIVbUVpItqLUleC3DFFqYq2MnpZWFiYSpmfn8/eTyqTZi+TFp9+Mp9L8MUI5PYrSlW0FaWJaC9KXQlyxxSlKtrK6CXX4JwGWblyZfZ+Upk0e5m0+PQTp1SJiIiIiEhn6HCIiIiIiEhn6HCIiIiIiEhn6HCIiIiIiEhn6HCIiIiIiEhn6HCIiIiIiEhn6HCIiIiIiEhn6HCIiIiIiEhn6HCIiIiIiEhn6HCIiIiIiEhn6HCIiIiIiEhn6HCIiIiIiEhnzM/NzRWjFMjtV5SqaCtKE9FelLoS5I4pSlW0ldHLwsLCVMr8/Hz2flKZNHuZtPj0k/lcgi9GILdfUaqirShNRHtR6kqQO6YoVdFWRi+5Buc0yMqVK7P3k8qk2cukxaefOKVKREREREQ6Q4dDREREREQ6Q4dDREREREQ6Q4dDREREREQ6Q4dDREREREQ6Y+6II45Ys6RHAm/r81b5qaee2ttTjz322KO46qqrelv1+P3f//3yl/CaQBxBvbWZFr2tt966uP3223tb9SG8pmGBenmmRU97ydNGDx2YVT1sBZray6ynC3pNdWDW9Sxb8rTVe/LJJ4vTTjut2HLLLXt76kFYhNmUUek9+OCDxYknnlhstNFGvT152thLhNM0PevoLV++vDj++ON7W6voMrwcdfQGOhx/+Id/WLzvfe/r7anHihUrimOPPba3NRwcGh2OPLOuZyGfR7082kueNnrowKzq6XDkQa+pDsy6nmVLnrZ6OhzrEuE0Tc86etPicDilSkREREREOkOHQ0REREREOkOHQ0REREREOkOHQ0REREREOkOHQ0REREREOmPulFNO6ftK+Xvf+97i7//+73tb9fjbv/3b4tFHH+1tDeepT31q8fjjj/e2RERERGSa2XDDDYv5+enq02aFpZ/85Ce9renhGc94RvErv/Irva3JZeTL4jZdLsxlcfsz63ouRZhHvTzaS542eujArOphKzBJS1fmWAq9pjow63qWLXna6rks7rpEOE3Tc5b0nFIlIiIiIiKdocMhIiIiIiKdocMhIiIiIiKdocMhIiIiIiKdocMhIiIiIiKdMXSVqqawFBorFNTlxS9+cfHud7+7/L8+v72fY9b1XBkkj3p5tJc8bfTQgVnVc5WqPOg11YFZ17NsydNWz1Wq1iXCaZqes6Q30OFoGiD4INZFvTwW8nnUy6O95Gmjhw7Mqh62AtZFa4NeUx2YdT3Lljxt9XQ41iXCaZqes6TnlCoREREREekMHQ4REREREekMHQ4REREREekMHQ4REREREekMHQ4REREREemMed4sH6VAbr+iVEVbUZqI9qLUlSB3TFGqoq2MXlitaBplfn4+ez+paC/tZINtttnmD8rUy0DiN2XTTTctHnjggd5WM9qEB+rlmXQ9baU/6q2L9tIf9dYGWwHtZV1m+d6gjZ5lS3/a6K1cubI46qijik022STb8OwnkNs/TEal9/jjjxcrVqwovyc3CO2lP4P0nFIlIiIiIiKdocMhIiIiIiKdocMhIiIiIiKdocMhIiIiIiKdocMhIiIiIiKdocMhIiIiIiKdocMhIiIiIiKdocMhIiIiIiKdocMhIiIiIiKdocMhIiIiIiKdocMhIiIiIiKdocMhIiIiIiKdMT83N1eMUiC3X1Gqoq0oTUR7UepKkDumKFXRVkYvCwsLUynz8/PZ+0lFe2knG2yzzTZ/UKZeBhK/KZtuumnxwAMP9Laa0SY8UC/PpOtpK/1Rb120l/6otzbYCmgv6zLL9wZt9Cxb+tNGb+XKlcVRRx1VbLLJJtmGZz+B3P5hMiq9xx9/vFixYkWx4YYblsf6ob30Z5CeU6pERERERKQzdDhERERERKQzdDhERERERKQzdDhERERERKQzdDhERERERKQzdDhERERERKQzdDhERERERKQzdDhERERERKQzdDhERERERKQzdDhERERERKQjiuL/AzTi5tKMOAVXAAAAAElFTkSuQmCC;" vertex="1" parent="1">
          <mxGeometry x="200" y="639.35" width="676" height="390.65" as="geometry" />
        </mxCell>
        <mxCell id="LjljhjCefLYw6fvzPOS--11" value="PageTitle" style="rounded=0;whiteSpace=wrap;html=1;fontSize=22;" vertex="1" parent="1">
          <mxGeometry x="930" y="790" width="200" height="70" as="geometry" />
        </mxCell>
        <mxCell id="LjljhjCefLYw6fvzPOS--12" style="edgeStyle=orthogonalEdgeStyle;rounded=0;orthogonalLoop=1;jettySize=auto;html=1;entryX=1.004;entryY=0.068;entryDx=0;entryDy=0;entryPerimeter=0;" edge="1" parent="1" source="LjljhjCefLYw6fvzPOS--11" target="LjljhjCefLYw6fvzPOS--9">
          <mxGeometry relative="1" as="geometry" />
        </mxCell>
        <mxCell id="LjljhjCefLYw6fvzPOS--14" style="edgeStyle=orthogonalEdgeStyle;rounded=0;orthogonalLoop=1;jettySize=auto;html=1;" edge="1" parent="1" source="LjljhjCefLYw6fvzPOS--13" target="LjljhjCefLYw6fvzPOS--9">
          <mxGeometry relative="1" as="geometry" />
        </mxCell>
        <mxCell id="LjljhjCefLYw6fvzPOS--13" value="ContentBox" style="rounded=0;whiteSpace=wrap;html=1;fontSize=22;" vertex="1" parent="1">
          <mxGeometry x="-100" y="850" width="200" height="70" as="geometry" />
        </mxCell>
      </root>
    </mxGraphModel>
  </diagram>
</mxfile>
